<?xml version="1.0" encoding="UTF-8" standalone="no"?>
<svg
   xmlns:rdf="http://www.w3.org/1999/02/22-rdf-syntax-ns#"
   xmlns:svg="http://www.w3.org/2000/svg"
   xmlns="http://www.w3.org/2000/svg"
   width="1000"
   height="1000"
   viewBox="0 0 1000 1000"
   version="1.1"
   style="--fill-color: black;--stroke-color:none;--stroke-width:5;">
  <path
     style="fill:var(--fill-color);stroke:var(--stroke-color);stroke-width:var(--stroke-width);"
     d="m 491.36004,627.42113 -32.14876,55.61708 138.37096,0 -97.47094,-169.35848 -126.16619,218.59745 308.85529,0 -182.6891,-316.8957 -211.55131,366.31424 479.62549,0 -268.07418,-464.93383 -297.31594,514.11203 651.32179,0 -354.00585,-612.73157 -382.66816,662.16029 821.94014,0 L 500.1113,119.69736 60.616717,880.30264 l 23.253294,0 416.241289,-720.41363 404.3377,700.30262 -752.11708,0 347.77938,-601.90825 319.11699,552.52508 -581.62764,0 262.51065,-453.87008 233.30439,404.65396 -410.01501,0 176.71062,-306.00912 147.942,256.61837 -239.31563,0 91.37363,-158.27202 62.74669,109.02041 -68.85412,0 14.8132,-25.47206 -17.45703,-10.05679 z"
     id="algorave" />
</svg>
