<svg width="1585" height="5739" xmlns="http://www.w3.org/2000/svg"><g><path d="M-131,-42L-133,2317L-129,133Z" fill="#fd9f6f" stroke="#fd9f6f"/><path d="M-131,-42L-129,133L119,123Z" fill="#fe9760" stroke="#fe9760"/><path d="M-131,-42L119,123L34,-106Z" fill="#fe9c62" stroke="#fe9c62"/><path d="M34,-106L119,123L202,99Z" fill="#fea96e" stroke="#fea96e"/><path d="M34,-106L202,99L242,-104Z" fill="#feab70" stroke="#feab70"/><path d="M34,-106L242,-104L484,-125Z" fill="#feb477" stroke="#feb477"/><path d="M242,-104L202,99L326,54Z" fill="#feb77b" stroke="#feb77b"/><path d="M242,-104L326,54L420,-28Z" fill="#ffbe81" stroke="#ffbe81"/><path d="M242,-104L420,-28L484,-125Z" fill="#ffc284" stroke="#ffc284"/><path d="M420,-28L326,54L509,117Z" fill="#ffc98c" stroke="#ffc98c"/><path d="M420,-28L509,117L627,32Z" fill="#ffd495" stroke="#ffd495"/><path d="M420,-28L627,32L484,-125Z" fill="#ffd192" stroke="#ffd192"/><path d="M484,-125L627,32L650,-52Z" fill="#fad091" stroke="#fad091"/><path d="M484,-125L650,-52L862,-126Z" fill="#f2cc8c" stroke="#f2cc8c"/><path d="M650,-52L627,32L793,45Z" fill="#f0cd8f" stroke="#f0cd8f"/><path d="M650,-52L793,45L862,-126Z" fill="#e8c989" stroke="#e8c989"/><path d="M862,-126L793,45L956,18Z" fill="#dec686" stroke="#dec686"/><path d="M862,-126L956,18L989,-91Z" fill="#d8c282" stroke="#d8c282"/><path d="M862,-126L989,-91L1073,-110Z" fill="#d4c07f" stroke="#d4c07f"/><path d="M862,-126L1073,-110L1418,-118Z" fill="#c6ba79" stroke="#c6ba79"/><path d="M989,-91L956,18L1073,-110Z" fill="#d1bf7f" stroke="#d1bf7f"/><path d="M1073,-110L956,18L1141,34Z" fill="#ccbe7f" stroke="#ccbe7f"/><path d="M1073,-110L1141,34L1294,-90Z" fill="#c1b979" stroke="#c1b979"/><path d="M1073,-110L1294,-90L1418,-118Z" fill="#b8b473" stroke="#b8b473"/><path d="M1294,-90L1141,34L1250,109Z" fill="#bcb879" stroke="#bcb879"/><path d="M1294,-90L1250,109L1478,54Z" fill="#b1b475" stroke="#b1b475"/><path d="M1294,-90L1478,54L1418,-118Z" fill="#abb070" stroke="#abb070"/><path d="M1418,-118L1478,54L1528,-75Z" fill="#a4ad6d" stroke="#a4ad6d"/><path d="M1418,-118L1528,-75L1719,-79Z" fill="#9ca968" stroke="#9ca968"/><path d="M1528,-75L1478,54L1629,113Z" fill="#9dac6c" stroke="#9dac6c"/><path d="M1528,-75L1629,113L1719,-79Z" fill="#95a868" stroke="#95a868"/><path d="M1719,-79L1629,113L1668,131Z" fill="#91a868" stroke="#91a868"/><path d="M1719,-79L1668,131L1706,228Z" fill="#8ea768" stroke="#8ea768"/><path d="M1719,-79L1706,228L1749,324Z" fill="#8ca869" stroke="#8ca869"/><path d="M1719,-79L1749,324L1776,543Z" fill="#8aa96c" stroke="#8aa96c"/><path d="M-129,133L-133,2317L-125,1779Z" fill="#fdad82" stroke="#fdad82"/><path d="M-129,133L-125,1779L-120,785Z" fill="#fda272" stroke="#fda272"/><path d="M-129,133L-120,785L-114,260Z" fill="#fd9763" stroke="#fd9763"/><path d="M-129,133L-114,260L119,123Z" fill="#fe9a63" stroke="#fe9a63"/><path d="M119,123L-114,260L102,282Z" fill="#fea46c" stroke="#fea46c"/><path d="M119,123L102,282L195,184Z" fill="#feae76" stroke="#feae76"/><path d="M119,123L195,184L202,99Z" fill="#feb077" stroke="#feb077"/><path d="M202,99L195,184L326,54Z" fill="#feb77d" stroke="#feb77d"/><path d="M326,54L195,184L434,245Z" fill="#ffc185" stroke="#ffc185"/><path d="M326,54L434,245L509,117Z" fill="#ffcb8f" stroke="#ffcb8f"/><path d="M509,117L434,245L571,276Z" fill="#ffd699" stroke="#ffd699"/><path d="M509,117L571,276L715,236Z" fill="#f8d698" stroke="#f8d698"/><path d="M509,117L715,236L627,32Z" fill="#f7d395" stroke="#f7d395"/><path d="M627,32L715,236L793,45Z" fill="#eecf91" stroke="#eecf91"/><path d="M793,45L715,236L877,168Z" fill="#e6cd8f" stroke="#e6cd8f"/><path d="M793,45L877,168L956,18Z" fill="#dec889" stroke="#dec889"/><path d="M956,18L877,168L1009,207Z" fill="#d7c688" stroke="#d7c688"/><path d="M956,18L1009,207L1141,34Z" fill="#cec283" stroke="#cec283"/><path d="M1141,34L1009,207L1152,189Z" fill="#c8c182" stroke="#c8c182"/><path d="M1141,34L1152,189L1250,109Z" fill="#c0bc7e" stroke="#c0bc7e"/><path d="M1250,109L1152,189L1271,208Z" fill="#bcbc7e" stroke="#bcbc7e"/><path d="M1250,109L1271,208L1395,185Z" fill="#b4b97b" stroke="#b4b97b"/><path d="M1250,109L1395,185L1478,54Z" fill="#aeb576" stroke="#aeb576"/><path d="M1478,54L1395,185L1534,239Z" fill="#a4b273" stroke="#a4b273"/><path d="M1478,54L1534,239L1629,113Z" fill="#9dae70" stroke="#9dae70"/><path d="M1629,113L1534,239L1668,131Z" fill="#97ac6e" stroke="#97ac6e"/><path d="M1668,131L1534,239L1706,228Z" fill="#94ac6e" stroke="#94ac6e"/><path d="M-114,260L-120,785L-83,673Z" fill="#fd9c6a" stroke="#fd9c6a"/><path d="M-114,260L-83,673L-35,533Z" fill="#fe9d6a" stroke="#fe9d6a"/><path d="M-114,260L-35,533L-48,348Z" fill="#fe9c67" stroke="#fe9c67"/><path d="M-114,260L-48,348L102,282Z" fill="#fe9f69" stroke="#fe9f69"/><path d="M102,282L-48,348L128,359Z" fill="#fea972" stroke="#fea972"/><path d="M102,282L128,359L195,184Z" fill="#feb178" stroke="#feb178"/><path d="M195,184L128,359L178,419Z" fill="#feb47c" stroke="#feb47c"/><path d="M195,184L178,419L411,406Z" fill="#febe85" stroke="#febe85"/><path d="M195,184L411,406L434,245Z" fill="#ffc78c" stroke="#ffc78c"/><path d="M434,245L411,406L548,412Z" fill="#ffd59a" stroke="#ffd59a"/><path d="M434,245L548,412L571,276Z" fill="#ffda9e" stroke="#ffda9e"/><path d="M571,276L548,412L685,321Z" fill="#f8d89c" stroke="#f8d89c"/><path d="M571,276L685,321L715,236Z" fill="#f3d599" stroke="#f3d599"/><path d="M715,236L685,321L801,367Z" fill="#ebd396" stroke="#ebd396"/><path d="M715,236L801,367L877,168Z" fill="#e5cf92" stroke="#e5cf92"/><path d="M877,168L801,367L984,393Z" fill="#ddcc90" stroke="#ddcc90"/><path d="M877,168L984,393L1009,207Z" fill="#d6c98b" stroke="#d6c98b"/><path d="M1009,207L984,393L1148,431Z" fill="#cdc78b" stroke="#cdc78b"/><path d="M1009,207L1148,431L1152,189Z" fill="#c8c386" stroke="#c8c386"/><path d="M1152,189L1148,431L1271,208Z" fill="#bfc083" stroke="#bfc083"/><path d="M1271,208L1148,431L1328,339Z" fill="#babf82" stroke="#babf82"/><path d="M1271,208L1328,339L1395,185Z" fill="#b2b97c" stroke="#b2b97c"/><path d="M1395,185L1328,339L1434,369Z" fill="#acb97b" stroke="#acb97b"/><path d="M1395,185L1434,369L1534,239Z" fill="#a6b578" stroke="#a6b578"/><path d="M1534,239L1434,369L1622,317Z" fill="#9fb376" stroke="#9fb376"/><path d="M1534,239L1622,317L1706,228Z" fill="#96ae71" stroke="#96ae71"/><path d="M1706,228L1622,317L1749,324Z" fill="#8fac6e" stroke="#8fac6e"/><path d="M-48,348L-35,533L128,359Z" fill="#fea670" stroke="#fea670"/><path d="M128,359L-35,533L26,578Z" fill="#feaa75" stroke="#feaa75"/><path d="M128,359L26,578L178,419Z" fill="#feb17b" stroke="#feb17b"/><path d="M178,419L26,578L176,520Z" fill="#feb47e" stroke="#feb47e"/><path d="M178,419L176,520L373,558Z" fill="#fec089" stroke="#fec089"/><path d="M178,419L373,558L411,406Z" fill="#ffc88f" stroke="#ffc88f"/><path d="M411,406L373,558L504,542Z" fill="#ffd59b" stroke="#ffd59b"/><path d="M411,406L504,542L548,412Z" fill="#ffda9f" stroke="#ffda9f"/><path d="M548,412L504,542L690,477Z" fill="#fadda2" stroke="#fadda2"/><path d="M548,412L690,477L685,321Z" fill="#f4d89d" stroke="#f4d89d"/><path d="M685,321L690,477L801,367Z" fill="#ecd599" stroke="#ecd599"/><path d="M801,367L690,477L818,486Z" fill="#e8d499" stroke="#e8d499"/><path d="M801,367L818,486L984,393Z" fill="#ded094" stroke="#ded094"/><path d="M984,393L818,486L955,574Z" fill="#dacf94" stroke="#dacf94"/><path d="M984,393L955,574L1068,515Z" fill="#d1cc91" stroke="#d1cc91"/><path d="M984,393L1068,515L1148,431Z" fill="#cbc88d" stroke="#cbc88d"/><path d="M1148,431L1068,515L1141,678Z" fill="#c6c98e" stroke="#c6c98e"/><path d="M1148,431L1141,678L1323,470Z" fill="#bec58a" stroke="#bec58a"/><path d="M1148,431L1323,470L1328,339Z" fill="#b8c084" stroke="#b8c084"/><path d="M1328,339L1323,470L1434,369Z" fill="#afbc7f" stroke="#afbc7f"/><path d="M1434,369L1323,470L1440,542Z" fill="#abbc80" stroke="#abbc80"/><path d="M1434,369L1440,542L1573,547Z" fill="#a3b97d" stroke="#a3b97d"/><path d="M1434,369L1573,547L1622,317Z" fill="#9db578" stroke="#9db578"/><path d="M1622,317L1573,547L1776,543Z" fill="#92b176" stroke="#92b176"/><path d="M1622,317L1776,543L1749,324Z" fill="#8dae71" stroke="#8dae71"/><path d="M-35,533L-83,673L26,578Z" fill="#fea572" stroke="#fea572"/><path d="M26,578L-83,673L50,724Z" fill="#fea977" stroke="#fea977"/><path d="M26,578L50,724L170,629Z" fill="#feb27e" stroke="#feb27e"/><path d="M26,578L170,629L176,520Z" fill="#feb580" stroke="#feb580"/><path d="M176,520L170,629L373,558Z" fill="#fec28b" stroke="#fec28b"/><path d="M373,558L170,629L412,710Z" fill="#ffcc94" stroke="#ffcc94"/><path d="M373,558L412,710L504,542Z" fill="#ffd79e" stroke="#ffd79e"/><path d="M504,542L412,710L525,701Z" fill="#ffdea5" stroke="#ffdea5"/><path d="M504,542L525,701L719,689Z" fill="#fae0a7" stroke="#fae0a7"/><path d="M504,542L719,689L690,477Z" fill="#f5dca2" stroke="#f5dca2"/><path d="M690,477L719,689L839,646Z" fill="#ead89f" stroke="#ead89f"/><path d="M690,477L839,646L818,486Z" fill="#e7d69b" stroke="#e7d69b"/><path d="M818,486L839,646L955,574Z" fill="#ded399" stroke="#ded399"/><path d="M955,574L839,646L948,705Z" fill="#dad39a" stroke="#dad39a"/><path d="M955,574L948,705L1141,678Z" fill="#d0cf96" stroke="#d0cf96"/><path d="M955,574L1141,678L1068,515Z" fill="#cccc92" stroke="#cccc92"/><path d="M1323,470L1141,678L1271,702Z" fill="#bac58b" stroke="#bac58b"/><path d="M1323,470L1271,702L1373,682Z" fill="#b3c288" stroke="#b3c288"/><path d="M1323,470L1373,682L1440,542Z" fill="#adbf84" stroke="#adbf84"/><path d="M1440,542L1373,682L1605,636Z" fill="#a4bc82" stroke="#a4bc82"/><path d="M1440,542L1605,636L1573,547Z" fill="#9eb97e" stroke="#9eb97e"/><path d="M1573,547L1605,636L1776,543Z" fill="#93b47a" stroke="#93b47a"/><path d="M1776,543L1605,636L1673,684Z" fill="#90b47a" stroke="#90b47a"/><path d="M1776,543L1673,684L1669,829Z" fill="#8eb47b" stroke="#8eb47b"/><path d="M1776,543L1669,829L1771,1005Z" fill="#8ab67d" stroke="#8ab67d"/><path d="M1776,543L1771,1005L1778,1308Z" fill="#87b881" stroke="#87b881"/><path d="M1776,543L1778,1308L1783,3102Z" fill="#87c896" stroke="#87c896"/><path d="M-83,673L-120,785L50,724Z" fill="#fea674" stroke="#fea674"/><path d="M50,724L-120,785L16,860Z" fill="#feab79" stroke="#feab79"/><path d="M50,724L16,860L185,817Z" fill="#feb683" stroke="#feb683"/><path d="M50,724L185,817L170,629Z" fill="#feba86" stroke="#feba86"/><path d="M170,629L185,817L412,710Z" fill="#fec791" stroke="#fec791"/><path d="M412,710L185,817L358,884Z" fill="#ffd09a" stroke="#ffd09a"/><path d="M412,710L358,884L506,816Z" fill="#ffdba4" stroke="#ffdba4"/><path d="M412,710L506,816L525,701Z" fill="#ffe0a8" stroke="#ffe0a8"/><path d="M525,701L506,816L638,853Z" fill="#fde5ad" stroke="#fde5ad"/><path d="M525,701L638,853L719,689Z" fill="#f6e1a9" stroke="#f6e1a9"/><path d="M719,689L638,853L767,809Z" fill="#eedfa6" stroke="#eedfa6"/><path d="M719,689L767,809L839,646Z" fill="#e7daa2" stroke="#e7daa2"/><path d="M839,646L767,809L948,705Z" fill="#e0d79f" stroke="#e0d79f"/><path d="M948,705L767,809L1019,859Z" fill="#dad79e" stroke="#dad79e"/><path d="M948,705L1019,859L1079,791Z" fill="#d0d29a" stroke="#d0d29a"/><path d="M948,705L1079,791L1141,678Z" fill="#cccf96" stroke="#cccf96"/><path d="M1141,678L1079,791L1232,791Z" fill="#c3cc93" stroke="#c3cc93"/><path d="M1141,678L1232,791L1271,702Z" fill="#bdc990" stroke="#bdc990"/><path d="M1271,702L1232,791L1373,682Z" fill="#b6c68d" stroke="#b6c68d"/><path d="M1373,682L1232,791L1479,822Z" fill="#afc48b" stroke="#afc48b"/><path d="M1373,682L1479,822L1605,636Z" fill="#a3be84" stroke="#a3be84"/><path d="M1605,636L1479,822L1611,857Z" fill="#9bbc83" stroke="#9bbc83"/><path d="M1605,636L1611,857L1673,684Z" fill="#95b87f" stroke="#95b87f"/><path d="M1673,684L1611,857L1669,829Z" fill="#93b980" stroke="#93b980"/><path d="M-120,785L-125,1779L-63,1079Z" fill="#fdab7e" stroke="#fdab7e"/><path d="M-120,785L-63,1079L-20,1023Z" fill="#fea97a" stroke="#fea97a"/><path d="M-120,785L-20,1023L16,860Z" fill="#feaa7a" stroke="#feaa7a"/><path d="M16,860L-20,1023L57,956Z" fill="#feb281" stroke="#feb281"/><path d="M16,860L57,956L185,817Z" fill="#feb886" stroke="#feb886"/><path d="M185,817L57,956L220,982Z" fill="#fec08e" stroke="#fec08e"/><path d="M185,817L220,982L358,884Z" fill="#fecb97" stroke="#fecb97"/><path d="M358,884L220,982L375,977Z" fill="#ffd39e" stroke="#ffd39e"/><path d="M358,884L375,977L502,939Z" fill="#ffdca7" stroke="#ffdca7"/><path d="M358,884L502,939L506,816Z" fill="#ffe0aa" stroke="#ffe0aa"/><path d="M506,816L502,939L638,853Z" fill="#fde7af" stroke="#fde7af"/><path d="M638,853L502,939L692,1027Z" fill="#f7e6af" stroke="#f7e6af"/><path d="M638,853L692,1027L769,956Z" fill="#efe2ac" stroke="#efe2ac"/><path d="M638,853L769,956L767,809Z" fill="#ece0a9" stroke="#ece0a9"/><path d="M767,809L769,956L1019,859Z" fill="#e0dba4" stroke="#e0dba4"/><path d="M1019,859L769,956L1017,994Z" fill="#d8d9a2" stroke="#d8d9a2"/><path d="M1019,859L1017,994L1128,994Z" fill="#ccd49e" stroke="#ccd49e"/><path d="M1019,859L1128,994L1079,791Z" fill="#cad29a" stroke="#cad29a"/><path d="M1079,791L1128,994L1232,791Z" fill="#c4cf97" stroke="#c4cf97"/><path d="M1232,791L1128,994L1223,1004Z" fill="#bfce97" stroke="#bfce97"/><path d="M1232,791L1223,1004L1430,966Z" fill="#b5ca93" stroke="#b5ca93"/><path d="M1232,791L1430,966L1479,822Z" fill="#adc58e" stroke="#adc58e"/><path d="M1479,822L1430,966L1547,972Z" fill="#a3c38b" stroke="#a3c38b"/><path d="M1479,822L1547,972L1611,857Z" fill="#9dbf87" stroke="#9dbf87"/><path d="M1611,857L1547,972L1771,1005Z" fill="#94bd85" stroke="#94bd85"/><path d="M1611,857L1771,1005L1669,829Z" fill="#90ba82" stroke="#90ba82"/><path d="M-20,1023L-63,1079L68,1153Z" fill="#feb384" stroke="#feb384"/><path d="M-20,1023L68,1153L57,956Z" fill="#feb687" stroke="#feb687"/><path d="M57,956L68,1153L184,1149Z" fill="#febe8e" stroke="#febe8e"/><path d="M57,956L184,1149L220,982Z" fill="#fec392" stroke="#fec392"/><path d="M220,982L184,1149L340,1139Z" fill="#fecf9d" stroke="#fecf9d"/><path d="M220,982L340,1139L375,977Z" fill="#ffd4a1" stroke="#ffd4a1"/><path d="M375,977L340,1139L526,1145Z" fill="#ffe0ac" stroke="#ffe0ac"/><path d="M375,977L526,1145L502,939Z" fill="#ffe4af" stroke="#ffe4af"/><path d="M502,939L526,1145L692,1027Z" fill="#fbe9b4" stroke="#fbe9b4"/><path d="M692,1027L526,1145L691,1076Z" fill="#f5e8b3" stroke="#f5e8b3"/><path d="M692,1027L691,1076L769,956Z" fill="#ede3ae" stroke="#ede3ae"/><path d="M769,956L691,1076L826,1155Z" fill="#e9e2ad" stroke="#e9e2ad"/><path d="M769,956L826,1155L919,1084Z" fill="#e1dfaa" stroke="#e1dfaa"/><path d="M769,956L919,1084L1017,994Z" fill="#dbdca6" stroke="#dbdca6"/><path d="M1017,994L919,1084L1131,1141Z" fill="#d0d9a3" stroke="#d0d9a3"/><path d="M1017,994L1131,1141L1128,994Z" fill="#c9d59f" stroke="#c9d59f"/><path d="M1128,994L1131,1141L1223,1004Z" fill="#c2d39d" stroke="#c2d39d"/><path d="M1223,1004L1131,1141L1246,1174Z" fill="#bed29d" stroke="#bed29d"/><path d="M1223,1004L1246,1174L1443,1166Z" fill="#b4ce99" stroke="#b4ce99"/><path d="M1223,1004L1443,1166L1430,966Z" fill="#aeca94" stroke="#aeca94"/><path d="M1430,966L1443,1166L1529,1079Z" fill="#a5c791" stroke="#a5c791"/><path d="M1430,966L1529,1079L1547,972Z" fill="#a1c48d" stroke="#a1c48d"/><path d="M1547,972L1529,1079L1687,1136Z" fill="#99c28c" stroke="#99c28c"/><path d="M1547,972L1687,1136L1771,1005Z" fill="#91be87" stroke="#91be87"/><path d="M1771,1005L1687,1136L1778,1308Z" fill="#8abd88" stroke="#8abd88"/><path d="M-63,1079L-125,1779L-51,1440Z" fill="#feb388" stroke="#feb388"/><path d="M-63,1079L-51,1440L-20,1310Z" fill="#feb386" stroke="#feb386"/><path d="M-63,1079L-20,1310L68,1153Z" fill="#feb587" stroke="#feb587"/><path d="M68,1153L-20,1310L108,1247Z" fill="#febc8e" stroke="#febc8e"/><path d="M68,1153L108,1247L184,1149Z" fill="#fec393" stroke="#fec393"/><path d="M184,1149L108,1247L256,1242Z" fill="#feca9a" stroke="#feca9a"/><path d="M184,1149L256,1242L340,1139Z" fill="#fed2a0" stroke="#fed2a0"/><path d="M340,1139L256,1242L363,1234Z" fill="#ffd9a7" stroke="#ffd9a7"/><path d="M340,1139L363,1234L526,1145Z" fill="#ffe1af" stroke="#ffe1af"/><path d="M526,1145L363,1234L559,1244Z" fill="#ffeab7" stroke="#ffeab7"/><path d="M526,1145L559,1244L691,1076Z" fill="#f9ecb7" stroke="#f9ecb7"/><path d="M691,1076L559,1244L631,1296Z" fill="#f6ebb7" stroke="#f6ebb7"/><path d="M691,1076L631,1296L807,1264Z" fill="#eee8b4" stroke="#eee8b4"/><path d="M691,1076L807,1264L826,1155Z" fill="#e7e4b0" stroke="#e7e4b0"/><path d="M826,1155L807,1264L1000,1330Z" fill="#dee2af" stroke="#dee2af"/><path d="M826,1155L1000,1330L919,1084Z" fill="#dadfab" stroke="#dadfab"/><path d="M919,1084L1000,1330L1131,1141Z" fill="#d0dba7" stroke="#d0dba7"/><path d="M1131,1141L1000,1330L1169,1239Z" fill="#c8d9a5" stroke="#c8d9a5"/><path d="M1131,1141L1169,1239L1246,1174Z" fill="#c0d5a0" stroke="#c0d5a0"/><path d="M1246,1174L1169,1239L1244,1306Z" fill="#bdd4a0" stroke="#bdd4a0"/><path d="M1246,1174L1244,1306L1427,1225Z" fill="#b4d19d" stroke="#b4d19d"/><path d="M1246,1174L1427,1225L1443,1166Z" fill="#aecd98" stroke="#aecd98"/><path d="M1443,1166L1427,1225L1557,1269Z" fill="#a4ca95" stroke="#a4ca95"/><path d="M1443,1166L1557,1269L1529,1079Z" fill="#a1c792" stroke="#a1c792"/><path d="M1529,1079L1557,1269L1687,1136Z" fill="#99c48f" stroke="#99c48f"/><path d="M1687,1136L1557,1269L1778,1308Z" fill="#91c28e" stroke="#91c28e"/><path d="M-20,1310L-51,1440L57,1419Z" fill="#feba8e" stroke="#feba8e"/><path d="M-20,1310L57,1419L108,1247Z" fill="#febe91" stroke="#febe91"/><path d="M108,1247L57,1419L197,1369Z" fill="#fec698" stroke="#fec698"/><path d="M108,1247L197,1369L256,1242Z" fill="#fecc9d" stroke="#fecc9d"/><path d="M256,1242L197,1369L422,1405Z" fill="#ffd9a8" stroke="#ffd9a8"/><path d="M256,1242L422,1405L363,1234Z" fill="#ffdead" stroke="#ffdead"/><path d="M363,1234L422,1405L559,1244Z" fill="#ffe9b6" stroke="#ffe9b6"/><path d="M559,1244L422,1405L557,1419Z" fill="#fff1be" stroke="#fff1be"/><path d="M559,1244L557,1419L631,1296Z" fill="#faf0bd" stroke="#faf0bd"/><path d="M631,1296L557,1419L648,1378Z" fill="#f7efbd" stroke="#f7efbd"/><path d="M631,1296L648,1378L807,1264Z" fill="#efebb8" stroke="#efebb8"/><path d="M807,1264L648,1378L873,1429Z" fill="#e7e9b6" stroke="#e7e9b6"/><path d="M807,1264L873,1429L1000,1330Z" fill="#dce4b1" stroke="#dce4b1"/><path d="M1000,1330L873,1429L921,1432Z" fill="#d8e4b1" stroke="#d8e4b1"/><path d="M1000,1330L921,1432L1087,1382Z" fill="#d1e0ad" stroke="#d1e0ad"/><path d="M1000,1330L1087,1382L1169,1239Z" fill="#c9dca8" stroke="#c9dca8"/><path d="M1169,1239L1087,1382L1244,1306Z" fill="#c2d8a4" stroke="#c2d8a4"/><path d="M1244,1306L1087,1382L1299,1464Z" fill="#bdd8a5" stroke="#bdd8a5"/><path d="M1244,1306L1299,1464L1482,1367Z" fill="#b1d3a0" stroke="#b1d3a0"/><path d="M1244,1306L1482,1367L1427,1225Z" fill="#adcf9b" stroke="#adcf9b"/><path d="M1427,1225L1482,1367L1557,1269Z" fill="#a3cb97" stroke="#a3cb97"/><path d="M1557,1269L1482,1367L1574,1374Z" fill="#9eca96" stroke="#9eca96"/><path d="M1557,1269L1574,1374L1778,1308Z" fill="#94c692" stroke="#94c692"/><path d="M1778,1308L1574,1374L1771,1383Z" fill="#8dc490" stroke="#8dc490"/><path d="M1778,1308L1771,1383L1768,2286Z" fill="#87c897" stroke="#87c897"/><path d="M1778,1308L1768,2286L1783,3102Z" fill="#81ce9a" stroke="#81ce9a"/><path d="M-51,1440L-125,1779L-50,1597Z" fill="#feb78d" stroke="#feb78d"/><path d="M-51,1440L-50,1597L72,1569Z" fill="#febd92" stroke="#febd92"/><path d="M-51,1440L72,1569L57,1419Z" fill="#febf93" stroke="#febf93"/><path d="M57,1419L72,1569L177,1598Z" fill="#fec99c" stroke="#fec99c"/><path d="M57,1419L177,1598L197,1369Z" fill="#fecb9e" stroke="#fecb9e"/><path d="M197,1369L177,1598L345,1605Z" fill="#fed7a9" stroke="#fed7a9"/><path d="M197,1369L345,1605L422,1405Z" fill="#ffdeaf" stroke="#ffdeaf"/><path d="M422,1405L345,1605L575,1530Z" fill="#ffeebd" stroke="#ffeebd"/><path d="M422,1405L575,1530L557,1419Z" fill="#fff4c2" stroke="#fff4c2"/><path d="M557,1419L575,1530L648,1378Z" fill="#f9f2c0" stroke="#f9f2c0"/><path d="M648,1378L575,1530L671,1571Z" fill="#f5f2c0" stroke="#f5f2c0"/><path d="M648,1378L671,1571L873,1429Z" fill="#ecedbb" stroke="#ecedbb"/><path d="M873,1429L671,1571L870,1531Z" fill="#e5ebba" stroke="#e5ebba"/><path d="M873,1429L870,1531L921,1432Z" fill="#dde7b5" stroke="#dde7b5"/><path d="M921,1432L870,1531L1033,1618Z" fill="#d7e6b4" stroke="#d7e6b4"/><path d="M921,1432L1033,1618L1087,1382Z" fill="#d0e2b0" stroke="#d0e2b0"/><path d="M1087,1382L1033,1618L1072,1612Z" fill="#cce1b0" stroke="#cce1b0"/><path d="M1087,1382L1072,1612L1269,1558Z" fill="#c4deac" stroke="#c4deac"/><path d="M1087,1382L1269,1558L1299,1464Z" fill="#bddaa8" stroke="#bddaa8"/><path d="M1299,1464L1269,1558L1449,1555Z" fill="#b1d6a4" stroke="#b1d6a4"/><path d="M1299,1464L1449,1555L1482,1367Z" fill="#aad29f" stroke="#aad29f"/><path d="M1482,1367L1449,1555L1587,1523Z" fill="#a1ce9c" stroke="#a1ce9c"/><path d="M1482,1367L1587,1523L1574,1374Z" fill="#9dcc99" stroke="#9dcc99"/><path d="M1574,1374L1587,1523L1771,1383Z" fill="#94c895" stroke="#94c895"/><path d="M1771,1383L1587,1523L1679,1613Z" fill="#90c996" stroke="#90c996"/><path d="M1771,1383L1679,1613L1747,1684Z" fill="#8bc795" stroke="#8bc795"/><path d="M1771,1383L1747,1684L1768,2286Z" fill="#88cb9c" stroke="#88cb9c"/><path d="M-50,1597L-125,1779L48,1719Z" fill="#febd94" stroke="#febd94"/><path d="M-50,1597L48,1719L72,1569Z" fill="#fec298" stroke="#fec298"/><path d="M72,1569L48,1719L177,1598Z" fill="#feca9f" stroke="#feca9f"/><path d="M177,1598L48,1719L247,1720Z" fill="#fed2a6" stroke="#fed2a6"/><path d="M177,1598L247,1720L345,1605Z" fill="#fedcaf" stroke="#fedcaf"/><path d="M345,1605L247,1720L352,1736Z" fill="#ffe3b6" stroke="#ffe3b6"/><path d="M345,1605L352,1736L539,1715Z" fill="#ffeebf" stroke="#ffeebf"/><path d="M345,1605L539,1715L575,1530Z" fill="#fff4c4" stroke="#fff4c4"/><path d="M575,1530L539,1715L671,1571Z" fill="#f9f6c5" stroke="#f9f6c5"/><path d="M671,1571L539,1715L696,1711Z" fill="#f5f5c5" stroke="#f5f5c5"/><path d="M671,1571L696,1711L870,1531Z" fill="#eaf0bf" stroke="#eaf0bf"/><path d="M870,1531L696,1711L801,1768Z" fill="#e6efc0" stroke="#e6efc0"/><path d="M870,1531L801,1768L1033,1618Z" fill="#dbeaba" stroke="#dbeaba"/><path d="M1033,1618L801,1768L991,1783Z" fill="#d7eabb" stroke="#d7eabb"/><path d="M1033,1618L991,1783L1072,1612Z" fill="#cfe6b6" stroke="#cfe6b6"/><path d="M1072,1612L991,1783L1178,1770Z" fill="#cae5b5" stroke="#cae5b5"/><path d="M1072,1612L1178,1770L1229,1717Z" fill="#c2e1b1" stroke="#c2e1b1"/><path d="M1072,1612L1229,1717L1269,1558Z" fill="#bfdeae" stroke="#bfdeae"/><path d="M1269,1558L1229,1717L1413,1743Z" fill="#b4dbab" stroke="#b4dbab"/><path d="M1269,1558L1413,1743L1449,1555Z" fill="#add7a6" stroke="#add7a6"/><path d="M1449,1555L1413,1743L1529,1778Z" fill="#a5d5a5" stroke="#a5d5a5"/><path d="M1449,1555L1529,1778L1587,1523Z" fill="#9fd1a0" stroke="#9fd1a0"/><path d="M1587,1523L1529,1778L1679,1613Z" fill="#98ce9d" stroke="#98ce9d"/><path d="M1679,1613L1529,1778L1707,1817Z" fill="#94cf9f" stroke="#94cf9f"/><path d="M1679,1613L1707,1817L1747,1684Z" fill="#8dcc9b" stroke="#8dcc9b"/><path d="M-125,1779L-133,2317L-119,2117Z" fill="#fab991" stroke="#fab991"/><path d="M-125,1779L-119,2117L-105,1927Z" fill="#fdba93" stroke="#fdba93"/><path d="M-125,1779L-105,1927L110,1818Z" fill="#fec098" stroke="#fec098"/><path d="M-125,1779L110,1818L48,1719Z" fill="#fec49b" stroke="#fec49b"/><path d="M48,1719L110,1818L247,1720Z" fill="#fed1a7" stroke="#fed1a7"/><path d="M247,1720L110,1818L242,1911Z" fill="#fedaaf" stroke="#fedaaf"/><path d="M247,1720L242,1911L319,1837Z" fill="#ffe1b6" stroke="#ffe1b6"/><path d="M247,1720L319,1837L352,1736Z" fill="#ffe4b8" stroke="#ffe4b8"/><path d="M352,1736L319,1837L539,1927Z" fill="#fff0c3" stroke="#fff0c3"/><path d="M352,1736L539,1927L539,1715Z" fill="#fff7c9" stroke="#fff7c9"/><path d="M539,1715L539,1927L646,1863Z" fill="#fbfbcd" stroke="#fbfbcd"/><path d="M539,1715L646,1863L696,1711Z" fill="#f6f8c9" stroke="#f6f8c9"/><path d="M696,1711L646,1863L801,1768Z" fill="#edf5c6" stroke="#edf5c6"/><path d="M801,1768L646,1863L826,1889Z" fill="#e9f5c6" stroke="#e9f5c6"/><path d="M801,1768L826,1889L991,1783Z" fill="#deefc1" stroke="#deefc1"/><path d="M991,1783L826,1889L945,1901Z" fill="#d9eec0" stroke="#d9eec0"/><path d="M991,1783L945,1901L1162,1918Z" fill="#cfeabc" stroke="#cfeabc"/><path d="M991,1783L1162,1918L1178,1770Z" fill="#c7e6b7" stroke="#c7e6b7"/><path d="M1178,1770L1162,1918L1272,1844Z" fill="#bee3b4" stroke="#bee3b4"/><path d="M1178,1770L1272,1844L1229,1717Z" fill="#bce1b1" stroke="#bce1b1"/><path d="M1229,1717L1272,1844L1413,1743Z" fill="#b4ddae" stroke="#b4ddae"/><path d="M1413,1743L1272,1844L1432,1830Z" fill="#aedbac" stroke="#aedbac"/><path d="M1413,1743L1432,1830L1529,1778Z" fill="#a6d7a8" stroke="#a6d7a8"/><path d="M1529,1778L1432,1830L1630,1883Z" fill="#9fd5a6" stroke="#9fd5a6"/><path d="M1529,1778L1630,1883L1707,1817Z" fill="#96d2a2" stroke="#96d2a2"/><path d="M1747,1684L1707,1817L1768,2286Z" fill="#8acfa0" stroke="#8acfa0"/><path d="M-105,1927L-119,2117L-98,2042Z" fill="#fbbb93" stroke="#fbbb93"/><path d="M-105,1927L-98,2042L85,1973Z" fill="#fcc29a" stroke="#fcc29a"/><path d="M-105,1927L85,1973L110,1818Z" fill="#fec9a2" stroke="#fec9a2"/><path d="M110,1818L85,1973L242,1911Z" fill="#fed5ac" stroke="#fed5ac"/><path d="M242,1911L85,1973L237,2049Z" fill="#fddbb0" stroke="#fddbb0"/><path d="M242,1911L237,2049L341,2035Z" fill="#fde4b8" stroke="#fde4b8"/><path d="M242,1911L341,2035L319,1837Z" fill="#fee7bc" stroke="#fee7bc"/><path d="M319,1837L341,2035L508,1990Z" fill="#fef0c4" stroke="#fef0c4"/><path d="M319,1837L508,1990L539,1927Z" fill="#fff7cb" stroke="#fff7cb"/><path d="M539,1927L508,1990L629,2052Z" fill="#fbfed0" stroke="#fbfed0"/><path d="M539,1927L629,2052L646,1863Z" fill="#f7fcce" stroke="#f7fcce"/><path d="M646,1863L629,2052L779,2047Z" fill="#eff9ca" stroke="#eff9ca"/><path d="M646,1863L779,2047L826,1889Z" fill="#e9f6c8" stroke="#e9f6c8"/><path d="M826,1889L779,2047L937,2068Z" fill="#dff3c4" stroke="#dff3c4"/><path d="M826,1889L937,2068L945,1901Z" fill="#daf0c2" stroke="#daf0c2"/><path d="M945,1901L937,2068L1070,2081Z" fill="#d1edbe" stroke="#d1edbe"/><path d="M945,1901L1070,2081L1162,1918Z" fill="#cbeabc" stroke="#cbeabc"/><path d="M1162,1918L1070,2081L1296,2004Z" fill="#bfe6b6" stroke="#bfe6b6"/><path d="M1162,1918L1296,2004L1272,1844Z" fill="#bae3b5" stroke="#bae3b5"/><path d="M1272,1844L1296,2004L1432,1830Z" fill="#b2dfb0" stroke="#b2dfb0"/><path d="M1432,1830L1296,2004L1460,1978Z" fill="#abddae" stroke="#abddae"/><path d="M1432,1830L1460,1978L1630,1883Z" fill="#a1d8a9" stroke="#a1d8a9"/><path d="M1630,1883L1460,1978L1621,2068Z" fill="#9ad6a6" stroke="#9ad6a6"/><path d="M1630,1883L1621,2068L1691,1989Z" fill="#92d3a3" stroke="#92d3a3"/><path d="M1630,1883L1691,1989L1707,1817Z" fill="#90d1a3" stroke="#90d1a3"/><path d="M1707,1817L1691,1989L1768,2286Z" fill="#8ad0a0" stroke="#8ad0a0"/><path d="M-98,2042L-119,2117L70,2140Z" fill="#fac198" stroke="#fac198"/><path d="M-98,2042L70,2140L85,1973Z" fill="#fbc89f" stroke="#fbc89f"/><path d="M85,1973L70,2140L237,2049Z" fill="#fcd4a9" stroke="#fcd4a9"/><path d="M237,2049L70,2140L214,2171Z" fill="#fad9ad" stroke="#fad9ad"/><path d="M237,2049L214,2171L379,2140Z" fill="#fbe4b6" stroke="#fbe4b6"/><path d="M237,2049L379,2140L341,2035Z" fill="#fce9bc" stroke="#fce9bc"/><path d="M341,2035L379,2140L508,1990Z" fill="#fcf2c4" stroke="#fcf2c4"/><path d="M508,1990L379,2140L544,2220Z" fill="#fbfaca" stroke="#fbfaca"/><path d="M508,1990L544,2220L629,2052Z" fill="#f9fece" stroke="#f9fece"/><path d="M629,2052L544,2220L641,2182Z" fill="#f3fccc" stroke="#f3fccc"/><path d="M629,2052L641,2182L779,2047Z" fill="#edf9c9" stroke="#edf9c9"/><path d="M779,2047L641,2182L827,2134Z" fill="#e6f6c6" stroke="#e6f6c6"/><path d="M779,2047L827,2134L937,2068Z" fill="#ddf3c2" stroke="#ddf3c2"/><path d="M937,2068L827,2134L924,2206Z" fill="#d7f1c0" stroke="#d7f1c0"/><path d="M937,2068L924,2206L1070,2081Z" fill="#d0edbc" stroke="#d0edbc"/><path d="M1070,2081L924,2206L1095,2189Z" fill="#caebba" stroke="#caebba"/><path d="M1070,2081L1095,2189L1294,2165Z" fill="#bee6b5" stroke="#bee6b5"/><path d="M1070,2081L1294,2165L1296,2004Z" fill="#b9e4b3" stroke="#b9e4b3"/><path d="M1296,2004L1294,2165L1451,2166Z" fill="#acdfae" stroke="#acdfae"/><path d="M1296,2004L1451,2166L1460,1978Z" fill="#a8ddac" stroke="#a8ddac"/><path d="M1460,1978L1451,2166L1621,2068Z" fill="#9dd8a8" stroke="#9dd8a8"/><path d="M1621,2068L1451,2166L1522,2205Z" fill="#9ad7a6" stroke="#9ad7a6"/><path d="M1621,2068L1522,2205L1719,2173Z" fill="#91d4a2" stroke="#91d4a2"/><path d="M1621,2068L1719,2173L1691,1989Z" fill="#8dd2a1" stroke="#8dd2a1"/><path d="M1691,1989L1719,2173L1768,2286Z" fill="#87d09e" stroke="#87d09e"/><path d="M-119,2117L-133,2317L70,2140Z" fill="#f8c095" stroke="#f8c095"/><path d="M70,2140L-133,2317L132,2329Z" fill="#f7c99c" stroke="#f7c99c"/><path d="M70,2140L132,2329L196,2302Z" fill="#f8d5a7" stroke="#f8d5a7"/><path d="M70,2140L196,2302L214,2171Z" fill="#f9d8aa" stroke="#f9d8aa"/><path d="M214,2171L196,2302L375,2292Z" fill="#f8e2b4" stroke="#f8e2b4"/><path d="M214,2171L375,2292L379,2140Z" fill="#f9e9ba" stroke="#f9e9ba"/><path d="M379,2140L375,2292L544,2220Z" fill="#f9f5c5" stroke="#f9f5c5"/><path d="M544,2220L375,2292L571,2267Z" fill="#f9fcca" stroke="#f9fcca"/><path d="M544,2220L571,2267L641,2182Z" fill="#f4fdcb" stroke="#f4fdcb"/><path d="M641,2182L571,2267L729,2323Z" fill="#edfbc8" stroke="#edfbc8"/><path d="M641,2182L729,2323L827,2134Z" fill="#e6f7c5" stroke="#e6f7c5"/><path d="M827,2134L729,2323L809,2325Z" fill="#e0f5c3" stroke="#e0f5c3"/><path d="M827,2134L809,2325L924,2206Z" fill="#daf2c1" stroke="#daf2c1"/><path d="M924,2206L809,2325L995,2380Z" fill="#d3f0bd" stroke="#d3f0bd"/><path d="M924,2206L995,2380L1095,2189Z" fill="#cbecba" stroke="#cbecba"/><path d="M1095,2189L995,2380L1167,2335Z" fill="#c2e9b6" stroke="#c2e9b6"/><path d="M1095,2189L1167,2335L1294,2165Z" fill="#bae5b3" stroke="#bae5b3"/><path d="M1294,2165L1167,2335L1310,2372Z" fill="#b2e2af" stroke="#b2e2af"/><path d="M1294,2165L1310,2372L1414,2347Z" fill="#a9dfac" stroke="#a9dfac"/><path d="M1294,2165L1414,2347L1451,2166Z" fill="#a6ddaa" stroke="#a6ddaa"/><path d="M1451,2166L1414,2347L1522,2205Z" fill="#9fdaa7" stroke="#9fdaa7"/><path d="M1522,2205L1414,2347L1611,2333Z" fill="#98d8a5" stroke="#98d8a5"/><path d="M1522,2205L1611,2333L1719,2173Z" fill="#90d4a1" stroke="#90d4a1"/><path d="M1719,2173L1611,2333L1768,2286Z" fill="#88d19d" stroke="#88d19d"/><path d="M-133,2317L-128,3347L-97,2898Z" fill="#ebb986" stroke="#ebb986"/><path d="M-133,2317L-97,2898L-85,2765Z" fill="#efbb8b" stroke="#efbb8b"/><path d="M-133,2317L-85,2765L-94,2431Z" fill="#f2bb8d" stroke="#f2bb8d"/><path d="M-133,2317L-94,2431L132,2329Z" fill="#f5c396" stroke="#f5c396"/><path d="M132,2329L-94,2431L104,2451Z" fill="#f4cb9d" stroke="#f4cb9d"/><path d="M132,2329L104,2451L196,2302Z" fill="#f6d6a7" stroke="#f6d6a7"/><path d="M196,2302L104,2451L193,2522Z" fill="#f4d8a8" stroke="#f4d8a8"/><path d="M196,2302L193,2522L383,2447Z" fill="#f5e2b1" stroke="#f5e2b1"/><path d="M196,2302L383,2447L375,2292Z" fill="#f6e9b7" stroke="#f6e9b7"/><path d="M375,2292L383,2447L571,2267Z" fill="#f7f6c4" stroke="#f7f6c4"/><path d="M571,2267L383,2447L486,2501Z" fill="#f6fac7" stroke="#f6fac7"/><path d="M571,2267L486,2501L616,2503Z" fill="#f3feca" stroke="#f3feca"/><path d="M571,2267L616,2503L729,2323Z" fill="#ecfbc7" stroke="#ecfbc7"/><path d="M729,2323L616,2503L801,2478Z" fill="#e3f8c3" stroke="#e3f8c3"/><path d="M729,2323L801,2478L809,2325Z" fill="#def5c1" stroke="#def5c1"/><path d="M809,2325L801,2478L949,2495Z" fill="#d6f2be" stroke="#d6f2be"/><path d="M809,2325L949,2495L995,2380Z" fill="#d0f0bb" stroke="#d0f0bb"/><path d="M995,2380L949,2495L1101,2466Z" fill="#c6ecb6" stroke="#c6ecb6"/><path d="M995,2380L1101,2466L1167,2335Z" fill="#c0e9b4" stroke="#c0e9b4"/><path d="M1167,2335L1101,2466L1228,2426Z" fill="#b8e6b1" stroke="#b8e6b1"/><path d="M1167,2335L1228,2426L1310,2372Z" fill="#b2e3ae" stroke="#b2e3ae"/><path d="M1310,2372L1228,2426L1370,2418Z" fill="#abe0ac" stroke="#abe0ac"/><path d="M1310,2372L1370,2418L1414,2347Z" fill="#a6dea9" stroke="#a6dea9"/><path d="M1414,2347L1370,2418L1596,2444Z" fill="#9cdaa5" stroke="#9cdaa5"/><path d="M1414,2347L1596,2444L1611,2333Z" fill="#95d7a2" stroke="#95d7a2"/><path d="M1611,2333L1596,2444L1677,2525Z" fill="#8bd49e" stroke="#8bd49e"/><path d="M1611,2333L1677,2525L1768,2286Z" fill="#87d19c" stroke="#87d19c"/><path d="M1768,2286L1677,2525L1771,2635Z" fill="#7fcf99" stroke="#7fcf99"/><path d="M1768,2286L1771,2635L1783,3102Z" fill="#79ce95" stroke="#79ce95"/><path d="M-94,2431L-85,2765L-52,2638Z" fill="#f0be8e" stroke="#f0be8e"/><path d="M-94,2431L-52,2638L104,2451Z" fill="#f2c595" stroke="#f2c595"/><path d="M104,2451L-52,2638L77,2659Z" fill="#f1cb9a" stroke="#f1cb9a"/><path d="M104,2451L77,2659L193,2522Z" fill="#f2d4a2" stroke="#f2d4a2"/><path d="M193,2522L77,2659L216,2566Z" fill="#f1d8a5" stroke="#f1d8a5"/><path d="M193,2522L216,2566L383,2447Z" fill="#f3e3b0" stroke="#f3e3b0"/><path d="M383,2447L216,2566L374,2644Z" fill="#f3e9b6" stroke="#f3e9b6"/><path d="M383,2447L374,2644L486,2501Z" fill="#f3f3be" stroke="#f3f3be"/><path d="M486,2501L374,2644L555,2643Z" fill="#f2f9c3" stroke="#f2f9c3"/><path d="M486,2501L555,2643L616,2503Z" fill="#f1fec8" stroke="#f1fec8"/><path d="M616,2503L555,2643L689,2621Z" fill="#e9fcc5" stroke="#e9fcc5"/><path d="M616,2503L689,2621L801,2478Z" fill="#e2f8c2" stroke="#e2f8c2"/><path d="M801,2478L689,2621L792,2678Z" fill="#dcf6bf" stroke="#dcf6bf"/><path d="M801,2478L792,2678L917,2595Z" fill="#d4f3bc" stroke="#d4f3bc"/><path d="M801,2478L917,2595L949,2495Z" fill="#d1f1bb" stroke="#d1f1bb"/><path d="M949,2495L917,2595L1104,2568Z" fill="#c7edb6" stroke="#c7edb6"/><path d="M949,2495L1104,2568L1101,2466Z" fill="#c1eab4" stroke="#c1eab4"/><path d="M1101,2466L1104,2568L1228,2426Z" fill="#b9e7b1" stroke="#b9e7b1"/><path d="M1228,2426L1104,2568L1244,2633Z" fill="#b3e5ae" stroke="#b3e5ae"/><path d="M1228,2426L1244,2633L1370,2418Z" fill="#ace1ab" stroke="#ace1ab"/><path d="M1370,2418L1244,2633L1387,2674Z" fill="#a5dfa8" stroke="#a5dfa8"/><path d="M1370,2418L1387,2674L1596,2444Z" fill="#9bdba4" stroke="#9bdba4"/><path d="M1596,2444L1387,2674L1626,2618Z" fill="#91d7a0" stroke="#91d7a0"/><path d="M1596,2444L1626,2618L1677,2525Z" fill="#89d39c" stroke="#89d39c"/><path d="M1677,2525L1626,2618L1771,2635Z" fill="#82d199" stroke="#82d199"/><path d="M-52,2638L-85,2765L77,2659Z" fill="#efc492" stroke="#efc492"/><path d="M77,2659L-85,2765L46,2868Z" fill="#eec894" stroke="#eec894"/><path d="M77,2659L46,2868L133,2815Z" fill="#edcf9b" stroke="#edcf9b"/><path d="M77,2659L133,2815L276,2762Z" fill="#eed8a3" stroke="#eed8a3"/><path d="M77,2659L276,2762L216,2566Z" fill="#f0dba7" stroke="#f0dba7"/><path d="M216,2566L276,2762L374,2644Z" fill="#f1e5b1" stroke="#f1e5b1"/><path d="M374,2644L276,2762L328,2749Z" fill="#efe9b3" stroke="#efe9b3"/><path d="M374,2644L328,2749L507,2794Z" fill="#eff2bb" stroke="#eff2bb"/><path d="M374,2644L507,2794L555,2643Z" fill="#f0fac2" stroke="#f0fac2"/><path d="M555,2643L507,2794L630,2808Z" fill="#ecfec5" stroke="#ecfec5"/><path d="M555,2643L630,2808L689,2621Z" fill="#e7fbc3" stroke="#e7fbc3"/><path d="M689,2621L630,2808L792,2678Z" fill="#dff8c0" stroke="#dff8c0"/><path d="M792,2678L630,2808L771,2898Z" fill="#dbf7be" stroke="#dbf7be"/><path d="M792,2678L771,2898L855,2732Z" fill="#d4f4bb" stroke="#d4f4bb"/><path d="M792,2678L855,2732L917,2595Z" fill="#d1f2ba" stroke="#d1f2ba"/><path d="M917,2595L855,2732L962,2718Z" fill="#ccf0b8" stroke="#ccf0b8"/><path d="M917,2595L962,2718L1104,2568Z" fill="#c5edb5" stroke="#c5edb5"/><path d="M1104,2568L962,2718L1130,2749Z" fill="#bdeab1" stroke="#bdeab1"/><path d="M1104,2568L1130,2749L1244,2633Z" fill="#b4e6ae" stroke="#b4e6ae"/><path d="M1244,2633L1130,2749L1280,2816Z" fill="#ade4ab" stroke="#ade4ab"/><path d="M1244,2633L1280,2816L1387,2674Z" fill="#a5e0a7" stroke="#a5e0a7"/><path d="M1387,2674L1280,2816L1479,2786Z" fill="#9ddda4" stroke="#9ddda4"/><path d="M1387,2674L1479,2786L1519,2764Z" fill="#95daa0" stroke="#95daa0"/><path d="M1387,2674L1519,2764L1626,2618Z" fill="#92d89f" stroke="#92d89f"/><path d="M1626,2618L1519,2764L1747,2728Z" fill="#86d39a" stroke="#86d39a"/><path d="M1626,2618L1747,2728L1771,2635Z" fill="#7ed097" stroke="#7ed097"/><path d="M1771,2635L1747,2728L1743,2868Z" fill="#79cf94" stroke="#79cf94"/><path d="M1771,2635L1743,2868L1783,3102Z" fill="#76ce92" stroke="#76ce92"/><path d="M-85,2765L-97,2898L46,2868Z" fill="#ecc18e" stroke="#ecc18e"/><path d="M133,2815L46,2868L208,2900Z" fill="#ecd49e" stroke="#ecd49e"/><path d="M133,2815L208,2900L276,2762Z" fill="#eddca6" stroke="#eddca6"/><path d="M276,2762L208,2900L351,2964Z" fill="#ece4ad" stroke="#ece4ad"/><path d="M276,2762L351,2964L328,2749Z" fill="#ede9b1" stroke="#ede9b1"/><path d="M328,2749L351,2964L507,2794Z" fill="#edf1b8" stroke="#edf1b8"/><path d="M507,2794L351,2964L566,2898Z" fill="#edf9c0" stroke="#edf9c0"/><path d="M507,2794L566,2898L630,2808Z" fill="#eafec4" stroke="#eafec4"/><path d="M630,2808L566,2898L662,2875Z" fill="#e4fcc1" stroke="#e4fcc1"/><path d="M630,2808L662,2875L771,2898Z" fill="#def9be" stroke="#def9be"/><path d="M855,2732L771,2898L1024,2947Z" fill="#cbf1b6" stroke="#cbf1b6"/><path d="M855,2732L1024,2947L962,2718Z" fill="#c6efb5" stroke="#c6efb5"/><path d="M962,2718L1024,2947L1132,2877Z" fill="#bcebb0" stroke="#bcebb0"/><path d="M962,2718L1132,2877L1130,2749Z" fill="#baeab0" stroke="#baeab0"/><path d="M1130,2749L1132,2877L1280,2816Z" fill="#afe5ab" stroke="#afe5ab"/><path d="M1280,2816L1132,2877L1226,2947Z" fill="#abe4a9" stroke="#abe4a9"/><path d="M1280,2816L1226,2947L1481,2965Z" fill="#9fdfa4" stroke="#9fdfa4"/><path d="M1280,2816L1481,2965L1479,2786Z" fill="#98dca1" stroke="#98dca1"/><path d="M1479,2786L1481,2965L1575,2946Z" fill="#8dd89c" stroke="#8dd89c"/><path d="M1479,2786L1575,2946L1519,2764Z" fill="#8ed89d" stroke="#8ed89d"/><path d="M1519,2764L1575,2946L1743,2868Z" fill="#85d499" stroke="#85d499"/><path d="M1519,2764L1743,2868L1747,2728Z" fill="#81d297" stroke="#81d297"/><path d="M-97,2898L-128,3347L-99,3040Z" fill="#e7ba84" stroke="#e7ba84"/><path d="M-97,2898L-99,3040L71,3020Z" fill="#e9c18c" stroke="#e9c18c"/><path d="M-97,2898L71,3020L46,2868Z" fill="#eac691" stroke="#eac691"/><path d="M46,2868L71,3020L208,2900Z" fill="#ebd19b" stroke="#ebd19b"/><path d="M208,2900L71,3020L196,3077Z" fill="#ead79f" stroke="#ead79f"/><path d="M208,2900L196,3077L351,2964Z" fill="#eae1a9" stroke="#eae1a9"/><path d="M351,2964L196,3077L362,3095Z" fill="#e9e6ac" stroke="#e9e6ac"/><path d="M351,2964L362,3095L530,3027Z" fill="#e9f2b8" stroke="#e9f2b8"/><path d="M351,2964L530,3027L566,2898Z" fill="#ebfabf" stroke="#ebfabf"/><path d="M566,2898L530,3027L629,3093Z" fill="#e6fdc1" stroke="#e6fdc1"/><path d="M566,2898L629,3093L662,2875Z" fill="#e2fbc0" stroke="#e2fbc0"/><path d="M662,2875L629,3093L771,2898Z" fill="#dcf8bd" stroke="#dcf8bd"/><path d="M771,2898L629,3093L881,3040Z" fill="#d4f6b9" stroke="#d4f6b9"/><path d="M771,2898L881,3040L1024,2947Z" fill="#c8f0b4" stroke="#c8f0b4"/><path d="M1024,2947L881,3040L951,3127Z" fill="#c1eeb1" stroke="#c1eeb1"/><path d="M1024,2947L951,3127L1150,3084Z" fill="#b8eaad" stroke="#b8eaad"/><path d="M1024,2947L1150,3084L1132,2877Z" fill="#b4e8ac" stroke="#b4e8ac"/><path d="M1132,2877L1150,3084L1226,2947Z" fill="#ade5a9" stroke="#ade5a9"/><path d="M1226,2947L1150,3084L1283,3056Z" fill="#a7e3a7" stroke="#a7e3a7"/><path d="M1226,2947L1283,3056L1481,2965Z" fill="#9ddfa3" stroke="#9ddfa3"/><path d="M1481,2965L1283,3056L1480,3018Z" fill="#95dc9f" stroke="#95dc9f"/><path d="M1481,2965L1480,3018L1575,2946Z" fill="#8cd89b" stroke="#8cd89b"/><path d="M1575,2946L1480,3018L1519,3092Z" fill="#8ad79a" stroke="#8ad79a"/><path d="M1575,2946L1519,3092L1607,3187Z" fill="#85d597" stroke="#85d597"/><path d="M1575,2946L1607,3187L1783,3102Z" fill="#7cd294" stroke="#7cd294"/><path d="M1575,2946L1783,3102L1743,2868Z" fill="#7ad094" stroke="#7ad094"/><path d="M-99,3040L-128,3347L-86,3180Z" fill="#e5ba83" stroke="#e5ba83"/><path d="M-99,3040L-86,3180L71,3020Z" fill="#e7c28b" stroke="#e7c28b"/><path d="M71,3020L-86,3180L84,3254Z" fill="#e6c890" stroke="#e6c890"/><path d="M71,3020L84,3254L196,3077Z" fill="#e7d29a" stroke="#e7d29a"/><path d="M196,3077L84,3254L211,3284Z" fill="#e6d79d" stroke="#e6d79d"/><path d="M196,3077L211,3284L355,3177Z" fill="#e6e1a6" stroke="#e6e1a6"/><path d="M196,3077L355,3177L362,3095Z" fill="#e8e7ac" stroke="#e8e7ac"/><path d="M362,3095L355,3177L509,3189Z" fill="#e7f2b5" stroke="#e7f2b5"/><path d="M362,3095L509,3189L530,3027Z" fill="#e9f8bc" stroke="#e9f8bc"/><path d="M530,3027L509,3189L629,3093Z" fill="#e6fec1" stroke="#e6fec1"/><path d="M629,3093L509,3189L667,3266Z" fill="#e0fcbd" stroke="#e0fcbd"/><path d="M629,3093L667,3266L778,3188Z" fill="#d8f8ba" stroke="#d8f8ba"/><path d="M629,3093L778,3188L881,3040Z" fill="#d2f5b8" stroke="#d2f5b8"/><path d="M881,3040L778,3188L951,3127Z" fill="#c7f1b3" stroke="#c7f1b3"/><path d="M951,3127L778,3188L923,3208Z" fill="#c5f1b2" stroke="#c5f1b2"/><path d="M951,3127L923,3208L1096,3225Z" fill="#baecad" stroke="#baecad"/><path d="M951,3127L1096,3225L1150,3084Z" fill="#b4e9ab" stroke="#b4e9ab"/><path d="M1150,3084L1096,3225L1252,3174Z" fill="#aae5a7" stroke="#aae5a7"/><path d="M1150,3084L1252,3174L1283,3056Z" fill="#a5e3a5" stroke="#a5e3a5"/><path d="M1283,3056L1252,3174L1448,3168Z" fill="#9bdfa1" stroke="#9bdfa1"/><path d="M1283,3056L1448,3168L1480,3018Z" fill="#94dc9e" stroke="#94dc9e"/><path d="M1480,3018L1448,3168L1519,3092Z" fill="#8dd99b" stroke="#8dd99b"/><path d="M1519,3092L1448,3168L1607,3187Z" fill="#88d798" stroke="#88d798"/><path d="M1783,3102L1607,3187L1763,3256Z" fill="#74cf90" stroke="#74cf90"/><path d="M1783,3102L1763,3256L1768,3663Z" fill="#6ccd8c" stroke="#6ccd8c"/><path d="M1783,3102L1768,3663L1782,4139Z" fill="#66cd87" stroke="#66cd87"/><path d="M-86,3180L-128,3347L84,3254Z" fill="#e4c188" stroke="#e4c188"/><path d="M84,3254L-128,3347L124,3351Z" fill="#e3c98e" stroke="#e3c98e"/><path d="M84,3254L124,3351L211,3284Z" fill="#e4d599" stroke="#e4d599"/><path d="M211,3284L124,3351L274,3346Z" fill="#e3dc9f" stroke="#e3dc9f"/><path d="M211,3284L274,3346L355,3177Z" fill="#e5e4a7" stroke="#e5e4a7"/><path d="M355,3177L274,3346L427,3322Z" fill="#e5ecae" stroke="#e5ecae"/><path d="M355,3177L427,3322L509,3189Z" fill="#e6f4b6" stroke="#e6f4b6"/><path d="M509,3189L427,3322L577,3334Z" fill="#e5fcbd" stroke="#e5fcbd"/><path d="M509,3189L577,3334L667,3266Z" fill="#e0fdbd" stroke="#e0fdbd"/><path d="M667,3266L577,3334L705,3348Z" fill="#d9faba" stroke="#d9faba"/><path d="M667,3266L705,3348L778,3188Z" fill="#d3f7b8" stroke="#d3f7b8"/><path d="M778,3188L705,3348L870,3371Z" fill="#ccf5b4" stroke="#ccf5b4"/><path d="M778,3188L870,3371L923,3208Z" fill="#c6f2b2" stroke="#c6f2b2"/><path d="M923,3208L870,3371L1008,3315Z" fill="#beefae" stroke="#beefae"/><path d="M923,3208L1008,3315L1096,3225Z" fill="#b7ecac" stroke="#b7ecac"/><path d="M1096,3225L1008,3315L1160,3348Z" fill="#afe9a8" stroke="#afe9a8"/><path d="M1096,3225L1160,3348L1252,3174Z" fill="#a8e5a6" stroke="#a8e5a6"/><path d="M1252,3174L1160,3348L1281,3317Z" fill="#a1e3a3" stroke="#a1e3a3"/><path d="M1252,3174L1281,3317L1448,3168Z" fill="#99df9f" stroke="#99df9f"/><path d="M1448,3168L1281,3317L1405,3373Z" fill="#93dd9d" stroke="#93dd9d"/><path d="M1448,3168L1405,3373L1607,3187Z" fill="#89d999" stroke="#89d999"/><path d="M1607,3187L1405,3373L1607,3420Z" fill="#83d796" stroke="#83d796"/><path d="M1607,3187L1607,3420L1763,3256Z" fill="#78d291" stroke="#78d291"/><path d="M1763,3256L1607,3420L1706,3417Z" fill="#73d08f" stroke="#73d08f"/><path d="M1763,3256L1706,3417L1768,3663Z" fill="#6dce8b" stroke="#6dce8b"/><path d="M-128,3347L-118,5369L-118,3707Z" fill="#d3b975" stroke="#d3b975"/><path d="M-128,3347L-118,3707L-56,3549Z" fill="#debb7f" stroke="#debb7f"/><path d="M-128,3347L-56,3549L120,3467Z" fill="#e0c388" stroke="#e0c388"/><path d="M-128,3347L120,3467L124,3351Z" fill="#e2ca8e" stroke="#e2ca8e"/><path d="M124,3351L120,3467L274,3346Z" fill="#e2d89b" stroke="#e2d89b"/><path d="M274,3346L120,3467L232,3510Z" fill="#e1dc9e" stroke="#e1dc9e"/><path d="M274,3346L232,3510L411,3468Z" fill="#e2e7a7" stroke="#e2e7a7"/><path d="M274,3346L411,3468L427,3322Z" fill="#e3eeaf" stroke="#e3eeaf"/><path d="M427,3322L411,3468L577,3334Z" fill="#e3f9b8" stroke="#e3f9b8"/><path d="M577,3334L411,3468L563,3546Z" fill="#e2febc" stroke="#e2febc"/><path d="M577,3334L563,3546L705,3348Z" fill="#dafbba" stroke="#dafbba"/><path d="M705,3348L563,3546L684,3576Z" fill="#d5fab7" stroke="#d5fab7"/><path d="M705,3348L684,3576L782,3498Z" fill="#cef7b5" stroke="#cef7b5"/><path d="M705,3348L782,3498L870,3371Z" fill="#caf5b3" stroke="#caf5b3"/><path d="M870,3371L782,3498L926,3513Z" fill="#c2f2af" stroke="#c2f2af"/><path d="M870,3371L926,3513L1008,3315Z" fill="#bcefad" stroke="#bcefad"/><path d="M1008,3315L926,3513L1102,3561Z" fill="#b3eca9" stroke="#b3eca9"/><path d="M1008,3315L1102,3561L1160,3348Z" fill="#ade8a6" stroke="#ade8a6"/><path d="M1160,3348L1102,3561L1254,3500Z" fill="#a4e5a3" stroke="#a4e5a3"/><path d="M1160,3348L1254,3500L1281,3317Z" fill="#9fe3a1" stroke="#9fe3a1"/><path d="M1281,3317L1254,3500L1405,3373Z" fill="#97e09e" stroke="#97e09e"/><path d="M1405,3373L1254,3500L1406,3566Z" fill="#91de9b" stroke="#91de9b"/><path d="M1405,3373L1406,3566L1551,3530Z" fill="#88da97" stroke="#88da97"/><path d="M1405,3373L1551,3530L1607,3420Z" fill="#82d794" stroke="#82d794"/><path d="M1607,3420L1551,3530L1691,3574Z" fill="#78d490" stroke="#78d490"/><path d="M1607,3420L1691,3574L1706,3417Z" fill="#74d18e" stroke="#74d18e"/><path d="M1706,3417L1691,3574L1768,3663Z" fill="#6dcf8b" stroke="#6dcf8b"/><path d="M-56,3549L-118,3707L68,3691Z" fill="#ddc284" stroke="#ddc284"/><path d="M-56,3549L68,3691L120,3467Z" fill="#deca8c" stroke="#deca8c"/><path d="M120,3467L68,3691L166,3677Z" fill="#ded293" stroke="#ded293"/><path d="M120,3467L166,3677L232,3510Z" fill="#dfd899" stroke="#dfd899"/><path d="M232,3510L166,3677L354,3711Z" fill="#dde19f" stroke="#dde19f"/><path d="M232,3510L354,3711L411,3468Z" fill="#dfeaa8" stroke="#dfeaa8"/><path d="M411,3468L354,3711L519,3688Z" fill="#def4b1" stroke="#def4b1"/><path d="M411,3468L519,3688L563,3546Z" fill="#e0fbb8" stroke="#e0fbb8"/><path d="M563,3546L519,3688L684,3576Z" fill="#d9fcb8" stroke="#d9fcb8"/><path d="M684,3576L519,3688L693,3725Z" fill="#d4fbb6" stroke="#d4fbb6"/><path d="M684,3576L693,3725L838,3616Z" fill="#caf6b2" stroke="#caf6b2"/><path d="M684,3576L838,3616L782,3498Z" fill="#c9f5b1" stroke="#c9f5b1"/><path d="M782,3498L838,3616L926,3513Z" fill="#c1f2af" stroke="#c1f2af"/><path d="M926,3513L838,3616L968,3642Z" fill="#baf0ab" stroke="#baf0ab"/><path d="M926,3513L968,3642L1102,3561Z" fill="#b2eca8" stroke="#b2eca8"/><path d="M1102,3561L968,3642L1082,3734Z" fill="#aceaa5" stroke="#aceaa5"/><path d="M1102,3561L1082,3734L1222,3712Z" fill="#a3e7a1" stroke="#a3e7a1"/><path d="M1102,3561L1222,3712L1254,3500Z" fill="#9fe4a0" stroke="#9fe4a0"/><path d="M1254,3500L1222,3712L1406,3566Z" fill="#95e09c" stroke="#95e09c"/><path d="M1406,3566L1222,3712L1390,3719Z" fill="#8fdf99" stroke="#8fdf99"/><path d="M1406,3566L1390,3719L1583,3672Z" fill="#84da94" stroke="#84da94"/><path d="M1406,3566L1583,3672L1551,3530Z" fill="#80d893" stroke="#80d893"/><path d="M1551,3530L1583,3672L1691,3574Z" fill="#77d48f" stroke="#77d48f"/><path d="M1691,3574L1583,3672L1768,3663Z" fill="#6fd18b" stroke="#6fd18b"/><path d="M-118,3707L-118,5369L-91,4437Z" fill="#ccba71" stroke="#ccba71"/><path d="M-118,3707L-91,4437L-95,4157Z" fill="#d4bb77" stroke="#d4bb77"/><path d="M-118,3707L-95,4157L-96,4014Z" fill="#d6bb79" stroke="#d6bb79"/><path d="M-118,3707L-96,4014L-65,3822Z" fill="#d8bc7b" stroke="#d8bc7b"/><path d="M-118,3707L-65,3822L68,3691Z" fill="#dbc282" stroke="#dbc282"/><path d="M68,3691L-65,3822L123,3859Z" fill="#daca89" stroke="#daca89"/><path d="M68,3691L123,3859L166,3677Z" fill="#dbd391" stroke="#dbd391"/><path d="M166,3677L123,3859L264,3791Z" fill="#dbda97" stroke="#dbda97"/><path d="M166,3677L264,3791L354,3711Z" fill="#dce29f" stroke="#dce29f"/><path d="M354,3711L264,3791L401,3788Z" fill="#dbeaa7" stroke="#dbeaa7"/><path d="M354,3711L401,3788L519,3688Z" fill="#dcf4af" stroke="#dcf4af"/><path d="M519,3688L401,3788L552,3874Z" fill="#dcfbb5" stroke="#dcfbb5"/><path d="M519,3688L552,3874L693,3725Z" fill="#d6fcb6" stroke="#d6fcb6"/><path d="M693,3725L552,3874L717,3769Z" fill="#cffab3" stroke="#cffab3"/><path d="M693,3725L717,3769L838,3616Z" fill="#c8f6b0" stroke="#c8f6b0"/><path d="M838,3616L717,3769L813,3799Z" fill="#c4f4af" stroke="#c4f4af"/><path d="M838,3616L813,3799L968,3642Z" fill="#bcf1ac" stroke="#bcf1ac"/><path d="M968,3642L813,3799L995,3808Z" fill="#b6efa9" stroke="#b6efa9"/><path d="M968,3642L995,3808L1082,3734Z" fill="#aeeba5" stroke="#aeeba5"/><path d="M1082,3734L995,3808L1152,3779Z" fill="#a7e9a2" stroke="#a7e9a2"/><path d="M1082,3734L1152,3779L1222,3712Z" fill="#a0e69f" stroke="#a0e69f"/><path d="M1222,3712L1152,3779L1240,3769Z" fill="#9be49d" stroke="#9be49d"/><path d="M1222,3712L1240,3769L1390,3719Z" fill="#94e19a" stroke="#94e19a"/><path d="M1390,3719L1240,3769L1448,3865Z" fill="#8cde96" stroke="#8cde96"/><path d="M1390,3719L1448,3865L1583,3672Z" fill="#81d992" stroke="#81d992"/><path d="M1583,3672L1448,3865L1635,3844Z" fill="#78d68e" stroke="#78d68e"/><path d="M1583,3672L1635,3844L1706,3824Z" fill="#70d38b" stroke="#70d38b"/><path d="M1583,3672L1706,3824L1768,3663Z" fill="#6dd18a" stroke="#6dd18a"/><path d="M1768,3663L1706,3824L1782,4139Z" fill="#64ce85" stroke="#64ce85"/><path d="M-65,3822L-96,4014L100,4021Z" fill="#d7c481" stroke="#d7c481"/><path d="M-65,3822L100,4021L123,3859Z" fill="#d8cb89" stroke="#d8cb89"/><path d="M123,3859L100,4021L285,3934Z" fill="#d8d894" stroke="#d8d894"/><path d="M123,3859L285,3934L264,3791Z" fill="#d9de9a" stroke="#d9de9a"/><path d="M264,3791L285,3934L353,3925Z" fill="#d9e6a1" stroke="#d9e6a1"/><path d="M264,3791L353,3925L401,3788Z" fill="#daeaa6" stroke="#daeaa6"/><path d="M401,3788L353,3925L552,3874Z" fill="#daf5ae" stroke="#daf5ae"/><path d="M552,3874L353,3925L545,4024Z" fill="#d9fab2" stroke="#d9fab2"/><path d="M552,3874L545,4024L642,3921Z" fill="#d4fdb4" stroke="#d4fdb4"/><path d="M552,3874L642,3921L717,3769Z" fill="#d0fab3" stroke="#d0fab3"/><path d="M717,3769L642,3921L813,3799Z" fill="#c8f7b0" stroke="#c8f7b0"/><path d="M813,3799L642,3921L856,3930Z" fill="#c2f5ad" stroke="#c2f5ad"/><path d="M813,3799L856,3930L995,3808Z" fill="#b8f0a9" stroke="#b8f0a9"/><path d="M995,3808L856,3930L1021,3980Z" fill="#b0eea5" stroke="#b0eea5"/><path d="M995,3808L1021,3980L1105,3934Z" fill="#a8eaa2" stroke="#a8eaa2"/><path d="M995,3808L1105,3934L1152,3779Z" fill="#a5e9a1" stroke="#a5e9a1"/><path d="M1152,3779L1105,3934L1240,3769Z" fill="#9de59e" stroke="#9de59e"/><path d="M1240,3769L1105,3934L1313,4021Z" fill="#97e39b" stroke="#97e39b"/><path d="M1240,3769L1313,4021L1448,3865Z" fill="#8cdf96" stroke="#8cdf96"/><path d="M1448,3865L1313,4021L1467,3935Z" fill="#84dc92" stroke="#84dc92"/><path d="M1448,3865L1467,3935L1635,3844Z" fill="#7ad78f" stroke="#7ad78f"/><path d="M1635,3844L1467,3935L1595,4023Z" fill="#75d68c" stroke="#75d68c"/><path d="M1635,3844L1595,4023L1689,3950Z" fill="#6dd389" stroke="#6dd389"/><path d="M1635,3844L1689,3950L1706,3824Z" fill="#6bd189" stroke="#6bd189"/><path d="M1706,3824L1689,3950L1782,4139Z" fill="#64cf85" stroke="#64cf85"/><path d="M-96,4014L-95,4157L118,4084Z" fill="#d4c37f" stroke="#d4c37f"/><path d="M-96,4014L118,4084L100,4021Z" fill="#d5ca86" stroke="#d5ca86"/><path d="M100,4021L118,4084L240,4125Z" fill="#d5d690" stroke="#d5d690"/><path d="M100,4021L240,4125L285,3934Z" fill="#d6dc96" stroke="#d6dc96"/><path d="M285,3934L240,4125L347,4102Z" fill="#d6e59e" stroke="#d6e59e"/><path d="M285,3934L347,4102L353,3925Z" fill="#d7e9a2" stroke="#d7e9a2"/><path d="M353,3925L347,4102L477,4081Z" fill="#d6f0a8" stroke="#d6f0a8"/><path d="M353,3925L477,4081L545,4024Z" fill="#d7f7ae" stroke="#d7f7ae"/><path d="M545,4024L477,4081L642,4293Z" fill="#d2feb3" stroke="#d2feb3"/><path d="M545,4024L642,4293L723,4086Z" fill="#cafaaf" stroke="#cafaaf"/><path d="M545,4024L723,4086L642,3921Z" fill="#cdfab1" stroke="#cdfab1"/><path d="M642,3921L723,4086L856,3930Z" fill="#c3f6ad" stroke="#c3f6ad"/><path d="M856,3930L723,4086L857,4174Z" fill="#bbf3a9" stroke="#bbf3a9"/><path d="M856,3930L857,4174L1005,4139Z" fill="#b1f0a5" stroke="#b1f0a5"/><path d="M856,3930L1005,4139L1021,3980Z" fill="#aeeea4" stroke="#aeeea4"/><path d="M1021,3980L1005,4139L1162,4166Z" fill="#a2ea9f" stroke="#a2ea9f"/><path d="M1021,3980L1162,4166L1105,3934Z" fill="#a0e89e" stroke="#a0e89e"/><path d="M1105,3934L1162,4166L1313,4021Z" fill="#97e49a" stroke="#97e49a"/><path d="M1313,4021L1162,4166L1300,4147Z" fill="#8fe296" stroke="#8fe296"/><path d="M1313,4021L1300,4147L1453,4163Z" fill="#85de92" stroke="#85de92"/><path d="M1313,4021L1453,4163L1467,3935Z" fill="#82dc91" stroke="#82dc91"/><path d="M1467,3935L1453,4163L1582,4066Z" fill="#78d88d" stroke="#78d88d"/><path d="M1467,3935L1582,4066L1595,4023Z" fill="#75d68c" stroke="#75d68c"/><path d="M1595,4023L1582,4066L1782,4139Z" fill="#69d286" stroke="#69d286"/><path d="M1595,4023L1782,4139L1689,3950Z" fill="#67d186" stroke="#67d186"/><path d="M-95,4157L-91,4437L-72,4327Z" fill="#d0bc76" stroke="#d0bc76"/><path d="M-95,4157L-72,4327L69,4308Z" fill="#d1c27c" stroke="#d1c27c"/><path d="M-95,4157L69,4308L118,4084Z" fill="#d2c983" stroke="#d2c983"/><path d="M118,4084L69,4308L242,4253Z" fill="#d2d58d" stroke="#d2d58d"/><path d="M118,4084L242,4253L240,4125Z" fill="#d3db94" stroke="#d3db94"/><path d="M240,4125L242,4253L347,4102Z" fill="#d4e49b" stroke="#d4e49b"/><path d="M347,4102L242,4253L338,4326Z" fill="#d3e79d" stroke="#d3e79d"/><path d="M347,4102L338,4326L493,4298Z" fill="#d2f0a5" stroke="#d2f0a5"/><path d="M347,4102L493,4298L477,4081Z" fill="#d4f5ab" stroke="#d4f5ab"/><path d="M477,4081L493,4298L642,4293Z" fill="#d2feb2" stroke="#d2feb2"/><path d="M723,4086L642,4293L857,4174Z" fill="#bff6aa" stroke="#bff6aa"/><path d="M857,4174L642,4293L816,4324Z" fill="#bbf5a8" stroke="#bbf5a8"/><path d="M857,4174L816,4324L986,4250Z" fill="#b0f1a3" stroke="#b0f1a3"/><path d="M857,4174L986,4250L1005,4139Z" fill="#abeea2" stroke="#abeea2"/><path d="M1005,4139L986,4250L1162,4166Z" fill="#a1ea9d" stroke="#a1ea9d"/><path d="M1162,4166L986,4250L1174,4236Z" fill="#9be89b" stroke="#9be89b"/><path d="M1162,4166L1174,4236L1300,4147Z" fill="#92e497" stroke="#92e497"/><path d="M1300,4147L1174,4236L1310,4326Z" fill="#8ce294" stroke="#8ce294"/><path d="M1300,4147L1310,4326L1399,4241Z" fill="#85df91" stroke="#85df91"/><path d="M1300,4147L1399,4241L1453,4163Z" fill="#81dd90" stroke="#81dd90"/><path d="M1453,4163L1399,4241L1580,4216Z" fill="#78d98c" stroke="#78d98c"/><path d="M1453,4163L1580,4216L1582,4066Z" fill="#73d78a" stroke="#73d78a"/><path d="M1582,4066L1580,4216L1782,4139Z" fill="#69d286" stroke="#69d286"/><path d="M1782,4139L1580,4216L1667,4291Z" fill="#64d184" stroke="#64d184"/><path d="M1782,4139L1667,4291L1778,4411Z" fill="#5dce80" stroke="#5dce80"/><path d="M1782,4139L1778,4411L1777,5339Z" fill="#53cd7a" stroke="#53cd7a"/><path d="M-72,4327L-91,4437L65,4398Z" fill="#cfc27a" stroke="#cfc27a"/><path d="M-72,4327L65,4398L69,4308Z" fill="#cfc880" stroke="#cfc880"/><path d="M69,4308L65,4398L246,4414Z" fill="#cfd389" stroke="#cfd389"/><path d="M69,4308L246,4414L242,4253Z" fill="#d0da90" stroke="#d0da90"/><path d="M242,4253L246,4414L338,4326Z" fill="#d1e398" stroke="#d1e398"/><path d="M338,4326L246,4414L414,4427Z" fill="#d0ea9d" stroke="#d0ea9d"/><path d="M338,4326L414,4427L493,4298Z" fill="#d0f3a6" stroke="#d0f3a6"/><path d="M493,4298L414,4427L468,4456Z" fill="#d0f7a9" stroke="#d0f7a9"/><path d="M493,4298L468,4456L630,4457Z" fill="#d0ffb0" stroke="#d0ffb0"/><path d="M493,4298L630,4457L642,4293Z" fill="#cbfcae" stroke="#cbfcae"/><path d="M642,4293L630,4457L824,4397Z" fill="#c0f8a9" stroke="#c0f8a9"/><path d="M642,4293L824,4397L816,4324Z" fill="#baf6a7" stroke="#baf6a7"/><path d="M816,4324L824,4397L997,4383Z" fill="#aef1a2" stroke="#aef1a2"/><path d="M816,4324L997,4383L986,4250Z" fill="#aaefa1" stroke="#aaefa1"/><path d="M986,4250L997,4383L1174,4236Z" fill="#9fea9c" stroke="#9fea9c"/><path d="M1174,4236L997,4383L1176,4418Z" fill="#98e799" stroke="#98e799"/><path d="M1174,4236L1176,4418L1262,4375Z" fill="#90e495" stroke="#90e495"/><path d="M1174,4236L1262,4375L1310,4326Z" fill="#8ce294" stroke="#8ce294"/><path d="M1310,4326L1262,4375L1435,4374Z" fill="#83df90" stroke="#83df90"/><path d="M1310,4326L1435,4374L1399,4241Z" fill="#7fdd8f" stroke="#7fdd8f"/><path d="M1399,4241L1435,4374L1580,4216Z" fill="#77d98b" stroke="#77d98b"/><path d="M1580,4216L1435,4374L1534,4457Z" fill="#71d789" stroke="#71d789"/><path d="M1580,4216L1534,4457L1667,4291Z" fill="#6ad486" stroke="#6ad486"/><path d="M1667,4291L1534,4457L1778,4411Z" fill="#63d282" stroke="#63d282"/><path d="M-91,4437L-118,5369L-69,4631Z" fill="#c6bb6e" stroke="#c6bb6e"/><path d="M-91,4437L-69,4631L65,4398Z" fill="#cdc279" stroke="#cdc279"/><path d="M65,4398L-69,4631L112,4630Z" fill="#cbca7e" stroke="#cbca7e"/><path d="M65,4398L112,4630L183,4546Z" fill="#ccd387" stroke="#ccd387"/><path d="M65,4398L183,4546L246,4414Z" fill="#ced88c" stroke="#ced88c"/><path d="M246,4414L183,4546L424,4528Z" fill="#cde497" stroke="#cde497"/><path d="M246,4414L424,4528L414,4427Z" fill="#ceed9f" stroke="#ceed9f"/><path d="M414,4427L424,4528L468,4456Z" fill="#cef5a6" stroke="#cef5a6"/><path d="M468,4456L424,4528L505,4602Z" fill="#cdf8a8" stroke="#cdf8a8"/><path d="M468,4456L505,4602L630,4457Z" fill="#cdffaf" stroke="#cdffaf"/><path d="M630,4457L505,4602L716,4625Z" fill="#c4fbaa" stroke="#c4fbaa"/><path d="M630,4457L716,4625L825,4540Z" fill="#baf7a6" stroke="#baf7a6"/><path d="M630,4457L825,4540L824,4397Z" fill="#b8f6a6" stroke="#b8f6a6"/><path d="M824,4397L825,4540L919,4549Z" fill="#aef2a1" stroke="#aef2a1"/><path d="M824,4397L919,4549L997,4383Z" fill="#aaefa0" stroke="#aaefa0"/><path d="M997,4383L919,4549L1085,4575Z" fill="#a0ec9c" stroke="#a0ec9c"/><path d="M997,4383L1085,4575L1176,4418Z" fill="#99e999" stroke="#99e999"/><path d="M1176,4418L1085,4575L1241,4538Z" fill="#90e594" stroke="#90e594"/><path d="M1176,4418L1241,4538L1262,4375Z" fill="#8be393" stroke="#8be393"/><path d="M1262,4375L1241,4538L1374,4589Z" fill="#84e090" stroke="#84e090"/><path d="M1262,4375L1374,4589L1435,4374Z" fill="#7fde8e" stroke="#7fde8e"/><path d="M1435,4374L1374,4589L1534,4457Z" fill="#76da89" stroke="#76da89"/><path d="M1534,4457L1374,4589L1585,4614Z" fill="#6fd886" stroke="#6fd886"/><path d="M1534,4457L1585,4614L1755,4575Z" fill="#63d381" stroke="#63d381"/><path d="M1534,4457L1755,4575L1778,4411Z" fill="#5ed180" stroke="#5ed180"/><path d="M1778,4411L1755,4575L1757,4852Z" fill="#55ce7b" stroke="#55ce7b"/><path d="M1778,4411L1757,4852L1777,5339Z" fill="#4fcd77" stroke="#4fcd77"/><path d="M-69,4631L-118,5369L-54,4816Z" fill="#c4bd6e" stroke="#c4bd6e"/><path d="M-69,4631L-54,4816L-23,4689Z" fill="#c8c074" stroke="#c8c074"/><path d="M-69,4631L-23,4689L18,4689Z" fill="#c9c377" stroke="#c9c377"/><path d="M-69,4631L18,4689L112,4630Z" fill="#cac87c" stroke="#cac87c"/><path d="M112,4630L18,4689L105,4867Z" fill="#c8ce80" stroke="#c8ce80"/><path d="M112,4630L105,4867L210,4844Z" fill="#c8d585" stroke="#c8d585"/><path d="M112,4630L210,4844L261,4757Z" fill="#c8db8b" stroke="#c8db8b"/><path d="M112,4630L261,4757L183,4546Z" fill="#cada8c" stroke="#cada8c"/><path d="M183,4546L261,4757L428,4667Z" fill="#cae595" stroke="#cae595"/><path d="M183,4546L428,4667L424,4528Z" fill="#cceb9c" stroke="#cceb9c"/><path d="M424,4528L428,4667L505,4602Z" fill="#ccf7a6" stroke="#ccf7a6"/><path d="M505,4602L428,4667L514,4729Z" fill="#cbfaa8" stroke="#cbfaa8"/><path d="M505,4602L514,4729L668,4703Z" fill="#c7fdab" stroke="#c7fdab"/><path d="M505,4602L668,4703L716,4625Z" fill="#c1fba9" stroke="#c1fba9"/><path d="M716,4625L668,4703L881,4677Z" fill="#b5f6a3" stroke="#b5f6a3"/><path d="M716,4625L881,4677L825,4540Z" fill="#b1f4a2" stroke="#b1f4a2"/><path d="M825,4540L881,4677L919,4549Z" fill="#abf19f" stroke="#abf19f"/><path d="M919,4549L881,4677L1079,4705Z" fill="#a2ee9b" stroke="#a2ee9b"/><path d="M919,4549L1079,4705L1085,4575Z" fill="#9ceb99" stroke="#9ceb99"/><path d="M1085,4575L1079,4705L1241,4538Z" fill="#91e795" stroke="#91e795"/><path d="M1241,4538L1079,4705L1283,4763Z" fill="#8ae491" stroke="#8ae491"/><path d="M1241,4538L1283,4763L1374,4589Z" fill="#81e08d" stroke="#81e08d"/><path d="M1374,4589L1283,4763L1425,4686Z" fill="#7ade8a" stroke="#7ade8a"/><path d="M1374,4589L1425,4686L1585,4614Z" fill="#71da87" stroke="#71da87"/><path d="M1585,4614L1425,4686L1596,4687Z" fill="#6ad783" stroke="#6ad783"/><path d="M1585,4614L1596,4687L1700,4719Z" fill="#61d380" stroke="#61d380"/><path d="M1585,4614L1700,4719L1755,4575Z" fill="#5cd17e" stroke="#5cd17e"/><path d="M1755,4575L1700,4719L1757,4852Z" fill="#55cf7b" stroke="#55cf7b"/><path d="M-23,4689L-54,4816L18,4689Z" fill="#c8c476" stroke="#c8c476"/><path d="M18,4689L-54,4816L105,4867Z" fill="#c7c87a" stroke="#c7c87a"/><path d="M261,4757L210,4844L405,4902Z" fill="#c7e593" stroke="#c7e593"/><path d="M261,4757L405,4902L428,4667Z" fill="#c8ed9b" stroke="#c8ed9b"/><path d="M428,4667L405,4902L514,4729Z" fill="#c9f6a3" stroke="#c9f6a3"/><path d="M514,4729L405,4902L554,4855Z" fill="#c8faa7" stroke="#c8faa7"/><path d="M514,4729L554,4855L668,4703Z" fill="#c4fda9" stroke="#c4fda9"/><path d="M668,4703L554,4855L627,4902Z" fill="#bffba7" stroke="#bffba7"/><path d="M668,4703L627,4902L868,4825Z" fill="#b5f7a2" stroke="#b5f7a2"/><path d="M668,4703L868,4825L881,4677Z" fill="#aef4a0" stroke="#aef4a0"/><path d="M881,4677L868,4825L989,4753Z" fill="#a4ef9c" stroke="#a4ef9c"/><path d="M881,4677L989,4753L1079,4705Z" fill="#9eed99" stroke="#9eed99"/><path d="M989,4753L868,4825L1001,4842Z" fill="#9fed99" stroke="#9fed99"/><path d="M989,4753L1001,4842L1079,4705Z" fill="#99eb97" stroke="#99eb97"/><path d="M1079,4705L1001,4842L1146,4833Z" fill="#93e994" stroke="#93e994"/><path d="M1079,4705L1146,4833L1283,4763Z" fill="#8be591" stroke="#8be591"/><path d="M1283,4763L1146,4833L1316,4852Z" fill="#82e28d" stroke="#82e28d"/><path d="M1283,4763L1316,4852L1425,4686Z" fill="#7ade8a" stroke="#7ade8a"/><path d="M1425,4686L1316,4852L1540,4862Z" fill="#72db86" stroke="#72db86"/><path d="M1425,4686L1540,4862L1596,4687Z" fill="#69d783" stroke="#69d783"/><path d="M1596,4687L1540,4862L1700,4719Z" fill="#61d47f" stroke="#61d47f"/><path d="M1700,4719L1540,4862L1757,4852Z" fill="#5ad17c" stroke="#5ad17c"/><path d="M-54,4816L-118,5369L-32,5043Z" fill="#c1be6d" stroke="#c1be6d"/><path d="M-54,4816L-32,5043L105,4867Z" fill="#c5c677" stroke="#c5c677"/><path d="M105,4867L-32,5043L28,5045Z" fill="#c3c978" stroke="#c3c978"/><path d="M105,4867L28,5045L238,5050Z" fill="#c4d381" stroke="#c4d381"/><path d="M105,4867L238,5050L210,4844Z" fill="#c5d988" stroke="#c5d988"/><path d="M210,4844L238,5050L358,4991Z" fill="#c5e28f" stroke="#c5e28f"/><path d="M210,4844L358,4991L405,4902Z" fill="#c6e895" stroke="#c6e895"/><path d="M405,4902L358,4991L550,5055Z" fill="#c4f49f" stroke="#c4f49f"/><path d="M405,4902L550,5055L554,4855Z" fill="#c6fca6" stroke="#c6fca6"/><path d="M554,4855L550,5055L627,4902Z" fill="#c1fca7" stroke="#c1fca7"/><path d="M627,4902L550,5055L714,4991Z" fill="#bbfaa4" stroke="#bbfaa4"/><path d="M627,4902L714,4991L868,4825Z" fill="#b2f6a1" stroke="#b2f6a1"/><path d="M868,4825L714,4991L837,5076Z" fill="#aaf39d" stroke="#aaf39d"/><path d="M868,4825L837,5076L979,5038Z" fill="#a1f099" stroke="#a1f099"/><path d="M868,4825L979,5038L1001,4842Z" fill="#9eee98" stroke="#9eee98"/><path d="M1001,4842L979,5038L1140,5020Z" fill="#93ea93" stroke="#93ea93"/><path d="M1001,4842L1140,5020L1146,4833Z" fill="#8fe892" stroke="#8fe892"/><path d="M1146,4833L1140,5020L1334,4971Z" fill="#84e38d" stroke="#84e38d"/><path d="M1146,4833L1334,4971L1316,4852Z" fill="#80e18b" stroke="#80e18b"/><path d="M1316,4852L1334,4971L1440,4933Z" fill="#75dd87" stroke="#75dd87"/><path d="M1316,4852L1440,4933L1540,4862Z" fill="#70da84" stroke="#70da84"/><path d="M1440,4933L1334,4971L1465,5009Z" fill="#6fdb84" stroke="#6fdb84"/><path d="M1440,4933L1465,5009L1573,5018Z" fill="#68d881" stroke="#68d881"/><path d="M1440,4933L1573,5018L1540,4862Z" fill="#66d780" stroke="#66d780"/><path d="M1540,4862L1573,5018L1757,4852Z" fill="#5dd37d" stroke="#5dd37d"/><path d="M1757,4852L1573,5018L1752,5008Z" fill="#55d079" stroke="#55d079"/><path d="M1757,4852L1752,5008L1777,5339Z" fill="#4ccd75" stroke="#4ccd75"/><path d="M-32,5043L-118,5369L-23,5168Z" fill="#bfbf6d" stroke="#bfbf6d"/><path d="M-32,5043L-23,5168L28,5045Z" fill="#c1c473" stroke="#c1c473"/><path d="M28,5045L-23,5168L41,5188Z" fill="#c0c774" stroke="#c0c774"/><path d="M28,5045L41,5188L196,5153Z" fill="#c1cf7c" stroke="#c1cf7c"/><path d="M28,5045L196,5153L238,5050Z" fill="#c2d683" stroke="#c2d683"/><path d="M238,5050L196,5153L421,5223Z" fill="#c1e48e" stroke="#c1e48e"/><path d="M238,5050L421,5223L358,4991Z" fill="#c2ea94" stroke="#c2ea94"/><path d="M358,4991L421,5223L550,5055Z" fill="#c3f59f" stroke="#c3f59f"/><path d="M550,5055L421,5223L553,5151Z" fill="#c2fca4" stroke="#c2fca4"/><path d="M550,5055L553,5151L717,5159Z" fill="#bbfba3" stroke="#bbfba3"/><path d="M550,5055L717,5159L714,4991Z" fill="#b7f9a1" stroke="#b7f9a1"/><path d="M714,4991L717,5159L837,5076Z" fill="#adf59d" stroke="#adf59d"/><path d="M837,5076L717,5159L820,5202Z" fill="#a8f49b" stroke="#a8f49b"/><path d="M837,5076L820,5202L996,5182Z" fill="#9ff097" stroke="#9ff097"/><path d="M837,5076L996,5182L979,5038Z" fill="#9bee96" stroke="#9bee96"/><path d="M979,5038L996,5182L1094,5174Z" fill="#92eb92" stroke="#92eb92"/><path d="M979,5038L1094,5174L1140,5020Z" fill="#8ee991" stroke="#8ee991"/><path d="M1140,5020L1094,5174L1279,5146Z" fill="#84e58c" stroke="#84e58c"/><path d="M1140,5020L1279,5146L1334,4971Z" fill="#7de28a" stroke="#7de28a"/><path d="M1334,4971L1279,5146L1436,5163Z" fill="#73de85" stroke="#73de85"/><path d="M1334,4971L1436,5163L1465,5009Z" fill="#6edb83" stroke="#6edb83"/><path d="M1465,5009L1436,5163L1573,5018Z" fill="#66d880" stroke="#66d880"/><path d="M1573,5018L1436,5163L1626,5117Z" fill="#60d67d" stroke="#60d67d"/><path d="M1573,5018L1626,5117L1752,5008Z" fill="#57d27a" stroke="#57d27a"/><path d="M1752,5008L1626,5117L1706,5201Z" fill="#52d077" stroke="#52d077"/><path d="M1752,5008L1706,5201L1777,5339Z" fill="#4bce74" stroke="#4bce74"/><path d="M-23,5168L-118,5369L83,5287Z" fill="#bec36f" stroke="#bec36f"/><path d="M-23,5168L83,5287L41,5188Z" fill="#bfc975" stroke="#bfc975"/><path d="M41,5188L83,5287L196,5153Z" fill="#bfd17c" stroke="#bfd17c"/><path d="M196,5153L83,5287L186,5316Z" fill="#bfd680" stroke="#bfd680"/><path d="M196,5153L186,5316L375,5313Z" fill="#bee08a" stroke="#bee08a"/><path d="M196,5153L375,5313L421,5223Z" fill="#bfe992" stroke="#bfe992"/><path d="M421,5223L375,5313L574,5269Z" fill="#bff79d" stroke="#bff79d"/><path d="M421,5223L574,5269L553,5151Z" fill="#c0fda4" stroke="#c0fda4"/><path d="M553,5151L574,5269L717,5159Z" fill="#b8fba2" stroke="#b8fba2"/><path d="M717,5159L574,5269L638,5334Z" fill="#b5faa0" stroke="#b5faa0"/><path d="M717,5159L638,5334L807,5304Z" fill="#adf79c" stroke="#adf79c"/><path d="M717,5159L807,5304L820,5202Z" fill="#a8f49a" stroke="#a8f49a"/><path d="M820,5202L807,5304L996,5182Z" fill="#9ef097" stroke="#9ef097"/><path d="M996,5182L807,5304L994,5360Z" fill="#98ee93" stroke="#98ee93"/><path d="M996,5182L994,5360L1141,5293Z" fill="#8eea8f" stroke="#8eea8f"/><path d="M996,5182L1141,5293L1094,5174Z" fill="#8be88e" stroke="#8be88e"/><path d="M1094,5174L1141,5293L1279,5146Z" fill="#82e58b" stroke="#82e58b"/><path d="M1279,5146L1141,5293L1289,5285Z" fill="#7be288" stroke="#7be288"/><path d="M1279,5146L1289,5285L1436,5163Z" fill="#73de84" stroke="#73de84"/><path d="M1436,5163L1289,5285L1467,5280Z" fill="#6cdc81" stroke="#6cdc81"/><path d="M1436,5163L1467,5280L1626,5117Z" fill="#62d77d" stroke="#62d77d"/><path d="M1626,5117L1467,5280L1706,5201Z" fill="#59d47a" stroke="#59d47a"/><path d="M1706,5201L1467,5280L1586,5373Z" fill="#59d479" stroke="#59d479"/><path d="M1706,5201L1586,5373L1777,5339Z" fill="#4fd074" stroke="#4fd074"/><path d="M-118,5369L-105,5961L-89,5518Z" fill="#b7ba62" stroke="#b7ba62"/><path d="M-118,5369L-89,5518L125,5514Z" fill="#bac26c" stroke="#bac26c"/><path d="M-118,5369L125,5514L83,5287Z" fill="#bbc872" stroke="#bbc872"/><path d="M83,5287L125,5514L186,5316Z" fill="#bcd37c" stroke="#bcd37c"/><path d="M186,5316L125,5514L242,5422Z" fill="#bbd981" stroke="#bbd981"/><path d="M186,5316L242,5422L375,5313Z" fill="#bde28a" stroke="#bde28a"/><path d="M375,5313L242,5422L371,5434Z" fill="#bce98f" stroke="#bce98f"/><path d="M375,5313L371,5434L468,5416Z" fill="#bcf197" stroke="#bcf197"/><path d="M375,5313L468,5416L574,5269Z" fill="#bef89e" stroke="#bef89e"/><path d="M574,5269L468,5416L638,5334Z" fill="#bbfda2" stroke="#bbfda2"/><path d="M638,5334L468,5416L694,5531Z" fill="#b5fb9f" stroke="#b5fb9f"/><path d="M638,5334L694,5531L807,5304Z" fill="#abf79b" stroke="#abf79b"/><path d="M807,5304L694,5531L793,5529Z" fill="#a5f598" stroke="#a5f598"/><path d="M807,5304L793,5529L994,5360Z" fill="#9cf195" stroke="#9cf195"/><path d="M994,5360L793,5529L1017,5500Z" fill="#95ee91" stroke="#95ee91"/><path d="M994,5360L1017,5500L1081,5520Z" fill="#8bea8d" stroke="#8bea8d"/><path d="M994,5360L1081,5520L1141,5293Z" fill="#88e98c" stroke="#88e98c"/><path d="M1141,5293L1081,5520L1320,5420Z" fill="#7ee488" stroke="#7ee488"/><path d="M1141,5293L1320,5420L1289,5285Z" fill="#79e286" stroke="#79e286"/><path d="M1289,5285L1320,5420L1467,5280Z" fill="#6edd81" stroke="#6edd81"/><path d="M1467,5280L1320,5420L1484,5482Z" fill="#66db7e" stroke="#66db7e"/><path d="M1467,5280L1484,5482L1586,5373Z" fill="#5ed77b" stroke="#5ed77b"/><path d="M1586,5373L1484,5482L1596,5469Z" fill="#59d578" stroke="#59d578"/><path d="M1586,5373L1596,5469L1711,5517Z" fill="#51d275" stroke="#51d275"/><path d="M1586,5373L1711,5517L1777,5339Z" fill="#4cd073" stroke="#4cd073"/><path d="M1777,5339L1711,5517L1772,5573Z" fill="#45ce6f" stroke="#45ce6f"/><path d="M1777,5339L1772,5573L1774,5791Z" fill="#41cd6e" stroke="#41cd6e"/><path d="M-89,5518L-105,5961L-23,5729Z" fill="#b5bd64" stroke="#b5bd64"/><path d="M-89,5518L-23,5729L-30,5656Z" fill="#b7c068" stroke="#b7c068"/><path d="M-89,5518L-30,5656L127,5569Z" fill="#b8c66d" stroke="#b8c66d"/><path d="M-89,5518L127,5569L125,5514Z" fill="#b9cb73" stroke="#b9cb73"/><path d="M125,5514L127,5569L266,5575Z" fill="#b9d87e" stroke="#b9d87e"/><path d="M125,5514L266,5575L242,5422Z" fill="#badc82" stroke="#badc82"/><path d="M242,5422L266,5575L371,5434Z" fill="#bbe58b" stroke="#bbe58b"/><path d="M371,5434L266,5575L361,5654Z" fill="#b9e98d" stroke="#b9e98d"/><path d="M371,5434L361,5654L481,5674Z" fill="#b9f194" stroke="#b9f194"/><path d="M371,5434L481,5674L468,5416Z" fill="#baf598" stroke="#baf598"/><path d="M468,5416L481,5674L656,5596Z" fill="#b9fea0" stroke="#b9fea0"/><path d="M468,5416L656,5596L694,5531Z" fill="#b3fb9e" stroke="#b3fb9e"/><path d="M694,5531L656,5596L781,5645Z" fill="#a8f798" stroke="#a8f798"/><path d="M694,5531L781,5645L793,5529Z" fill="#a4f597" stroke="#a4f597"/><path d="M793,5529L781,5645L995,5575Z" fill="#9af192" stroke="#9af192"/><path d="M793,5529L995,5575L1017,5500Z" fill="#93ee90" stroke="#93ee90"/><path d="M1017,5500L995,5575L1081,5520Z" fill="#8aea8c" stroke="#8aea8c"/><path d="M1081,5520L995,5575L1095,5571Z" fill="#87e98b" stroke="#87e98b"/><path d="M1081,5520L1095,5571L1320,5420Z" fill="#7de587" stroke="#7de587"/><path d="M1320,5420L1095,5571L1313,5674Z" fill="#75e283" stroke="#75e283"/><path d="M1320,5420L1313,5674L1420,5669Z" fill="#6ade7e" stroke="#6ade7e"/><path d="M1320,5420L1420,5669L1484,5482Z" fill="#65db7d" stroke="#65db7d"/><path d="M1484,5482L1420,5669L1611,5643Z" fill="#5ad778" stroke="#5ad778"/><path d="M1484,5482L1611,5643L1596,5469Z" fill="#56d577" stroke="#56d577"/><path d="M1596,5469L1611,5643L1711,5517Z" fill="#4fd273" stroke="#4fd273"/><path d="M1711,5517L1611,5643L1772,5573Z" fill="#48d070" stroke="#48d070"/><path d="M-30,5656L-23,5729L107,5745Z" fill="#b5c76d" stroke="#b5c76d"/><path d="M-30,5656L107,5745L127,5569Z" fill="#b6cd72" stroke="#b6cd72"/><path d="M127,5569L107,5745L266,5575Z" fill="#b7d77c" stroke="#b7d77c"/><path d="M266,5575L107,5745L216,5782Z" fill="#b6da7e" stroke="#b6da7e"/><path d="M266,5575L216,5782L361,5654Z" fill="#b7e487" stroke="#b7e487"/><path d="M361,5654L216,5782L391,5746Z" fill="#b6e88a" stroke="#b6e88a"/><path d="M361,5654L391,5746L481,5674Z" fill="#b7f293" stroke="#b7f293"/><path d="M481,5674L391,5746L512,5798Z" fill="#b6f797" stroke="#b6f797"/><path d="M481,5674L512,5798L650,5793Z" fill="#b4fd9d" stroke="#b4fd9d"/><path d="M481,5674L650,5793L656,5596Z" fill="#b1fc9c" stroke="#b1fc9c"/><path d="M656,5596L650,5793L781,5645Z" fill="#a7f898" stroke="#a7f898"/><path d="M781,5645L650,5793L790,5765Z" fill="#a2f695" stroke="#a2f695"/><path d="M781,5645L790,5765L1010,5737Z" fill="#97f191" stroke="#97f191"/><path d="M781,5645L1010,5737L995,5575Z" fill="#91ee8e" stroke="#91ee8e"/><path d="M995,5575L1010,5737L1095,5571Z" fill="#88ea8b" stroke="#88ea8b"/><path d="M1095,5571L1010,5737L1125,5779Z" fill="#82e888" stroke="#82e888"/><path d="M1095,5571L1125,5779L1287,5737Z" fill="#79e584" stroke="#79e584"/><path d="M1095,5571L1287,5737L1313,5674Z" fill="#74e282" stroke="#74e282"/><path d="M1313,5674L1287,5737L1449,5715Z" fill="#67de7d" stroke="#67de7d"/><path d="M1313,5674L1449,5715L1420,5669Z" fill="#64dc7b" stroke="#64dc7b"/><path d="M1420,5669L1449,5715L1611,5643Z" fill="#5ad877" stroke="#5ad877"/><path d="M1611,5643L1449,5715L1580,5801Z" fill="#54d675" stroke="#54d675"/><path d="M1611,5643L1580,5801L1774,5791Z" fill="#49d170" stroke="#49d170"/><path d="M1611,5643L1774,5791L1772,5573Z" fill="#45cf6e" stroke="#45cf6e"/><path d="M-23,5729L-105,5961L59,5954Z" fill="#b2c367" stroke="#b2c367"/><path d="M-23,5729L59,5954L107,5745Z" fill="#b3ca6e" stroke="#b3ca6e"/><path d="M107,5745L59,5954L216,5782Z" fill="#b4d376" stroke="#b4d376"/><path d="M216,5782L59,5954L241,5964Z" fill="#b2d879" stroke="#b2d879"/><path d="M216,5782L241,5964L391,5746Z" fill="#b4e485" stroke="#b4e485"/><path d="M391,5746L241,5964L426,5946Z" fill="#b3eb8b" stroke="#b3eb8b"/><path d="M391,5746L426,5946L476,5911Z" fill="#b3f493" stroke="#b3f493"/><path d="M391,5746L476,5911L512,5798Z" fill="#b5f796" stroke="#b5f796"/><path d="M512,5798L476,5911L631,5965Z" fill="#b2fe9b" stroke="#b2fe9b"/><path d="M512,5798L631,5965L650,5793Z" fill="#aefb99" stroke="#aefb99"/><path d="M650,5793L631,5965L850,5907Z" fill="#a2f794" stroke="#a2f794"/><path d="M650,5793L850,5907L790,5765Z" fill="#9ef593" stroke="#9ef593"/><path d="M790,5765L850,5907L1010,5737Z" fill="#93f08e" stroke="#93f08e"/><path d="M1010,5737L850,5907L943,5924Z" fill="#8dee8c" stroke="#8dee8c"/><path d="M1010,5737L943,5924L1125,5779Z" fill="#85ea88" stroke="#85ea88"/><path d="M1125,5779L943,5924L1156,5882Z" fill="#7fe986" stroke="#7fe986"/><path d="M1125,5779L1156,5882L1221,5875Z" fill="#77e582" stroke="#77e582"/><path d="M1125,5779L1221,5875L1287,5737Z" fill="#73e381" stroke="#73e381"/><path d="M1287,5737L1221,5875L1470,5941Z" fill="#67df7c" stroke="#67df7c"/><path d="M1287,5737L1470,5941L1449,5715Z" fill="#61dc79" stroke="#61dc79"/><path d="M1449,5715L1470,5941L1580,5801Z" fill="#57d875" stroke="#57d875"/><path d="M1580,5801L1470,5941L1583,5971Z" fill="#51d672" stroke="#51d672"/><path d="M1580,5801L1583,5971L1721,5906Z" fill="#49d36f" stroke="#49d36f"/><path d="M1580,5801L1721,5906L1774,5791Z" fill="#44d06d" stroke="#44d06d"/><path d="M-105,5961L241,5964L59,5954Z" fill="#b1cc6e" stroke="#b1cc6e"/><path d="M241,5964L1583,5971L631,5965Z" fill="#96f38f" stroke="#96f38f"/><path d="M241,5964L631,5965L426,5946Z" fill="#b2f492" stroke="#b2f492"/><path d="M426,5946L631,5965L476,5911Z" fill="#b2fc9a" stroke="#b2fc9a"/><path d="M631,5965L1583,5971L943,5924Z" fill="#80e985" stroke="#80e985"/><path d="M631,5965L943,5924L850,5907Z" fill="#98f390" stroke="#98f390"/><path d="M943,5924L1583,5971L1470,5941Z" fill="#65de7a" stroke="#65de7a"/><path d="M943,5924L1470,5941L1156,5882Z" fill="#73e480" stroke="#73e480"/><path d="M1156,5882L1470,5941L1221,5875Z" fill="#6ae07d" stroke="#6ae07d"/></g></svg>